# This file uses centimeters as units for non-parametric coordinates.

mtllib part2.mtl
g default
v -7.227111 3.520893 10.000002
v -7.154545 3.520893 10.000002
v -7.227111 3.732371 10.000002
v -7.154545 3.732371 10.000002
v -7.227111 3.732371 -7.979927
v -7.154545 3.732371 -7.979927
v -7.227111 3.520893 -7.979927
v -7.154545 3.520893 -7.979927
v -7.596102 1.441359 10.000002
v -7.555872 1.504586 10.000002
v -7.596102 1.567814 10.000002
v -7.596102 1.567814 -7.470465
v -7.555872 1.504586 -7.470465
v -7.596102 1.441359 -7.470465
v -7.577205 1.546481 10.000002
v -7.577205 1.462692 10.000002
v -7.577205 1.462692 -7.470465
v -7.584713 1.564607 10.000002
v -7.585840 1.566293 10.000002
v -7.587524 1.567419 10.000002
v -7.589513 1.567814 10.000002
v -7.584713 1.564607 -7.470465
v -7.589513 1.567814 -7.470465
v -7.587524 1.567419 -7.470465
v -7.585840 1.566293 -7.470465
v -7.559080 1.538972 10.000002
v -7.555872 1.534173 10.000002
v -7.556267 1.536161 10.000002
v -7.557395 1.537846 10.000002
v -7.559022 1.538949 -7.466303
v -7.557397 1.537792 -7.468451
v -7.556269 1.535982 -7.469942
v -7.555872 1.533843 -7.470465
v -7.559080 1.470200 10.000002
v -7.557395 1.471326 10.000002
v -7.556267 1.473012 10.000002
v -7.555872 1.475000 10.000002
v -7.559080 1.470200 -7.470465
v -7.555872 1.475000 -7.470465
v -7.556267 1.473012 -7.470465
v -7.557395 1.471326 -7.470465
v -7.584713 1.444565 10.000002
v -7.589513 1.441359 10.000002
v -7.587524 1.441754 10.000002
v -7.585840 1.442880 10.000002
v -7.584713 1.444565 -7.470465
v -7.585840 1.442880 -7.470465
v -7.587524 1.441754 -7.470465
v -7.589513 1.441359 -7.470465
v -7.577502 1.547195 -7.468426
v -7.578309 1.549147 -7.469919
v -7.579414 1.551814 -7.470465
v -7.577205 1.546481 -7.466385
v -7.596102 2.827699 10.000002
v -7.555872 2.890927 10.000002
v -7.596102 2.954155 10.000002
v -7.596102 2.954155 -7.472548
v -7.555872 2.890927 -7.472548
v -7.596102 2.827699 -7.472548
v -7.577205 2.932822 10.000002
v -7.577205 2.849032 10.000002
v -7.577205 2.849032 -7.472548
v -7.584713 2.950948 10.000002
v -7.585840 2.952634 10.000002
v -7.587524 2.953760 10.000002
v -7.589513 2.954155 10.000002
v -7.584713 2.950948 -7.472548
v -7.589513 2.954155 -7.472548
v -7.587524 2.953760 -7.472548
v -7.585840 2.952634 -7.472548
v -7.559080 2.925313 10.000002
v -7.555872 2.920514 10.000002
v -7.556267 2.922502 10.000002
v -7.557395 2.924187 10.000002
v -7.559022 2.925290 -7.468384
v -7.557397 2.924133 -7.470531
v -7.556269 2.922323 -7.472023
v -7.555872 2.920184 -7.472548
v -7.559080 2.856541 10.000002
v -7.557395 2.857667 10.000002
v -7.556267 2.859353 10.000002
v -7.555872 2.861341 10.000002
v -7.559080 2.856541 -7.472548
v -7.555872 2.861341 -7.472548
v -7.556267 2.859353 -7.472548
v -7.557395 2.857667 -7.472548
v -7.584713 2.830906 10.000002
v -7.589513 2.827699 10.000002
v -7.587524 2.828095 10.000002
v -7.585840 2.829221 10.000002
v -7.584713 2.830906 -7.472548
v -7.585840 2.829221 -7.472548
v -7.587524 2.828095 -7.472548
v -7.589513 2.827699 -7.472548
v -7.577502 2.933536 -7.470507
v -7.578309 2.935488 -7.472000
v -7.579414 2.938154 -7.472548
v -7.577205 2.932822 -7.468466
v -7.596102 4.214041 10.000002
v -7.555872 4.277268 10.000002
v -7.596102 4.340496 10.000002
v -7.596102 4.340496 -7.474630
v -7.555872 4.277268 -7.474630
v -7.596102 4.214041 -7.474630
v -7.577205 4.319163 10.000002
v -7.577205 4.235373 10.000002
v -7.577205 4.235373 -7.474630
v -7.584713 4.337289 10.000002
v -7.585840 4.338975 10.000002
v -7.587524 4.340101 10.000002
v -7.589513 4.340496 10.000002
v -7.584713 4.337289 -7.474630
v -7.589513 4.340496 -7.474630
v -7.587524 4.340101 -7.474630
v -7.585840 4.338975 -7.474630
v -7.559080 4.311654 10.000002
v -7.555872 4.306855 10.000002
v -7.556267 4.308843 10.000002
v -7.557395 4.310528 10.000002
v -7.559022 4.311631 -7.470467
v -7.557397 4.310474 -7.472616
v -7.556269 4.308664 -7.474106
v -7.555872 4.306525 -7.474630
v -7.559080 4.242882 10.000002
v -7.557395 4.244009 10.000002
v -7.556267 4.245694 10.000002
v -7.555872 4.247682 10.000002
v -7.559080 4.242882 -7.474630
v -7.555872 4.247682 -7.474630
v -7.556267 4.245694 -7.474630
v -7.557395 4.244009 -7.474630
v -7.584713 4.217247 10.000002
v -7.589513 4.214041 10.000002
v -7.587524 4.214436 10.000002
v -7.585840 4.215562 10.000002
v -7.584713 4.217247 -7.474630
v -7.585840 4.215562 -7.474630
v -7.587524 4.214436 -7.474630
v -7.589513 4.214041 -7.474630
v -7.577502 4.319877 -7.472589
v -7.578309 4.321829 -7.474085
v -7.579414 4.324496 -7.474630
v -7.577205 4.319163 -7.470549
v -7.596102 5.600382 10.000002
v -7.555872 5.663610 10.000002
v -7.596102 5.726837 10.000002
v -7.596102 5.726837 -7.476711
v -7.555872 5.663610 -7.476711
v -7.596102 5.600382 -7.476711
v -7.577205 5.705504 10.000002
v -7.577205 5.621715 10.000002
v -7.577205 5.621715 -7.476711
v -7.584713 5.723630 10.000002
v -7.585840 5.725316 10.000002
v -7.587524 5.726442 10.000002
v -7.589513 5.726837 10.000002
v -7.584713 5.723630 -7.476711
v -7.589513 5.726837 -7.476711
v -7.587524 5.726442 -7.476711
v -7.585840 5.725316 -7.476711
v -7.559080 5.697995 10.000002
v -7.555872 5.693196 10.000002
v -7.556267 5.695184 10.000002
v -7.557395 5.696869 10.000002
v -7.559022 5.697972 -7.472548
v -7.557397 5.696815 -7.474697
v -7.556269 5.695005 -7.476189
v -7.555872 5.692866 -7.476711
v -7.559080 5.629223 10.000002
v -7.557395 5.630350 10.000002
v -7.556267 5.632035 10.000002
v -7.555872 5.634023 10.000002
v -7.559080 5.629223 -7.476711
v -7.555872 5.634023 -7.476711
v -7.556267 5.632035 -7.476711
v -7.557395 5.630350 -7.476711
v -7.584713 5.603588 10.000002
v -7.589513 5.600382 10.000002
v -7.587524 5.600777 10.000002
v -7.585840 5.601903 10.000002
v -7.584713 5.603588 -7.476711
v -7.585840 5.601903 -7.476711
v -7.587524 5.600777 -7.476711
v -7.589513 5.600382 -7.476711
v -7.577502 5.706218 -7.474672
v -7.578309 5.708170 -7.476168
v -7.579414 5.710837 -7.476711
v -7.577205 5.705504 -7.472631
v -7.596102 6.986722 10.000002
v -7.555872 7.049950 10.000002
v -7.596102 7.113178 10.000002
v -7.596102 7.113178 -7.478792
v -7.555872 7.049950 -7.478792
v -7.596102 6.986722 -7.478792
v -7.577205 7.091845 10.000002
v -7.577205 7.008055 10.000002
v -7.577205 7.008055 -7.478792
v -7.584713 7.109971 10.000002
v -7.585840 7.111657 10.000002
v -7.587524 7.112782 10.000002
v -7.589513 7.113178 10.000002
v -7.584713 7.109971 -7.478792
v -7.589513 7.113178 -7.478792
v -7.587524 7.112782 -7.478792
v -7.585840 7.111657 -7.478792
v -7.559080 7.084336 10.000002
v -7.555872 7.079536 10.000002
v -7.556267 7.081524 10.000002
v -7.557395 7.083210 10.000002
v -7.559022 7.084312 -7.474630
v -7.557397 7.083156 -7.476778
v -7.556269 7.081346 -7.478270
v -7.555872 7.079206 -7.478792
v -7.559080 7.015564 10.000002
v -7.557395 7.016690 10.000002
v -7.556267 7.018375 10.000002
v -7.555872 7.020363 10.000002
v -7.559080 7.015564 -7.478792
v -7.555872 7.020363 -7.478792
v -7.556267 7.018375 -7.478792
v -7.557395 7.016690 -7.478792
v -7.584713 6.989929 10.000002
v -7.589513 6.986722 10.000002
v -7.587524 6.987117 10.000002
v -7.585840 6.988244 10.000002
v -7.584713 6.989929 -7.478792
v -7.585840 6.988244 -7.478792
v -7.587524 6.987117 -7.478792
v -7.589513 6.986722 -7.478792
v -7.577502 7.092559 -7.476753
v -7.578309 7.094511 -7.478247
v -7.579414 7.097178 -7.478792
v -7.577205 7.091845 -7.474712
v -7.596102 8.373063 10.000002
v -7.555872 8.436291 10.000002
v -7.596102 8.499518 10.000002
v -7.596102 8.499518 -7.480873
v -7.555872 8.436291 -7.480873
v -7.596102 8.373063 -7.480873
v -7.577205 8.478185 10.000002
v -7.577205 8.394396 10.000002
v -7.577205 8.394396 -7.480873
v -7.584713 8.496312 10.000002
v -7.585840 8.497997 10.000002
v -7.587524 8.499124 10.000002
v -7.589513 8.499518 10.000002
v -7.584713 8.496312 -7.480873
v -7.589513 8.499518 -7.480873
v -7.587524 8.499124 -7.480873
v -7.585840 8.497997 -7.480873
v -7.559080 8.470676 10.000002
v -7.555872 8.465878 10.000002
v -7.556267 8.467865 10.000002
v -7.557395 8.469550 10.000002
v -7.559022 8.470653 -7.476711
v -7.557397 8.469496 -7.478859
v -7.556269 8.467687 -7.480350
v -7.555872 8.465548 -7.480873
v -7.559080 8.401904 10.000002
v -7.557395 8.403030 10.000002
v -7.556267 8.404716 10.000002
v -7.555872 8.406704 10.000002
v -7.559080 8.401904 -7.480873
v -7.555872 8.406704 -7.480873
v -7.556267 8.404716 -7.480873
v -7.557395 8.403030 -7.480873
v -7.584713 8.376269 10.000002
v -7.589513 8.373063 10.000002
v -7.587524 8.373458 10.000002
v -7.585840 8.374584 10.000002
v -7.584713 8.376269 -7.480873
v -7.585840 8.374584 -7.480873
v -7.587524 8.373458 -7.480873
v -7.589513 8.373063 -7.480873
v -7.577502 8.478900 -7.478834
v -7.578309 8.480851 -7.480328
v -7.579414 8.483518 -7.480873
v -7.577205 8.478185 -7.476793
v -7.301417 1.441359 -8.000000
v -7.301417 1.504586 -7.959770
v -7.301417 1.567814 -8.000000
v 13.174116 1.567814 -8.000000
v 13.174116 1.504586 -7.959770
v 13.174116 1.441359 -8.000000
v -7.301417 1.546481 -7.981102
v -7.301417 1.462692 -7.981102
v 13.174116 1.462692 -7.981102
v -7.301417 1.564607 -7.988611
v -7.301417 1.566293 -7.989738
v -7.301417 1.567419 -7.991422
v -7.301417 1.567814 -7.993411
v 13.174116 1.564607 -7.988611
v 13.174116 1.567814 -7.993411
v 13.174116 1.567419 -7.991422
v 13.174116 1.566293 -7.989738
v -7.301417 1.538972 -7.962977
v -7.301417 1.534173 -7.959770
v -7.301417 1.536161 -7.960165
v -7.301417 1.537846 -7.961292
v 13.169954 1.538949 -7.962920
v 13.172102 1.537792 -7.961295
v 13.173594 1.535982 -7.960167
v 13.174116 1.533843 -7.959770
v -7.301417 1.470200 -7.962977
v -7.301417 1.471326 -7.961292
v -7.301417 1.473012 -7.960165
v -7.301417 1.475000 -7.959770
v 13.174116 1.470200 -7.962977
v 13.174116 1.475000 -7.959770
v 13.174116 1.473012 -7.960165
v 13.174116 1.471326 -7.961292
v -7.301417 1.444565 -7.988611
v -7.301417 1.441359 -7.993411
v -7.301417 1.441754 -7.991422
v -7.301417 1.442880 -7.989738
v 13.174116 1.444565 -7.988611
v 13.174116 1.442880 -7.989738
v 13.174116 1.441754 -7.991422
v 13.174116 1.441359 -7.993411
v 13.172079 1.547195 -7.981400
v 13.173573 1.549147 -7.982207
v 13.174116 1.551814 -7.983312
v 13.170036 1.546481 -7.981102
v -7.301417 2.827699 -8.000000
v -7.301417 2.890927 -7.959770
v -7.301417 2.954155 -8.000000
v 13.174116 2.954155 -8.000000
v 13.174116 2.890927 -7.959770
v 13.174116 2.827699 -8.000000
v -7.301417 2.932822 -7.981102
v -7.301417 2.849032 -7.981102
v 13.174116 2.849032 -7.981102
v -7.301417 2.950948 -7.988611
v -7.301417 2.952634 -7.989738
v -7.301417 2.953760 -7.991422
v -7.301417 2.954155 -7.993411
v 13.174116 2.950948 -7.988611
v 13.174116 2.954155 -7.993411
v 13.174116 2.953760 -7.991422
v 13.174116 2.952634 -7.989738
v -7.301417 2.925313 -7.962977
v -7.301417 2.920514 -7.959770
v -7.301417 2.922502 -7.960165
v -7.301417 2.924187 -7.961292
v 13.169954 2.925290 -7.962920
v 13.172102 2.924133 -7.961295
v 13.173594 2.922323 -7.960167
v 13.174116 2.920184 -7.959770
v -7.301417 2.856541 -7.962977
v -7.301417 2.857667 -7.961292
v -7.301417 2.859353 -7.960165
v -7.301417 2.861341 -7.959770
v 13.174116 2.856541 -7.962977
v 13.174116 2.861341 -7.959770
v 13.174116 2.859353 -7.960165
v 13.174116 2.857667 -7.961292
v -7.301417 2.830906 -7.988611
v -7.301417 2.827699 -7.993411
v -7.301417 2.828095 -7.991422
v -7.301417 2.829221 -7.989738
v 13.174116 2.830906 -7.988611
v 13.174116 2.829221 -7.989738
v 13.174116 2.828095 -7.991422
v 13.174116 2.827699 -7.993411
v 13.172079 2.933536 -7.981400
v 13.173573 2.935488 -7.982207
v 13.174116 2.938154 -7.983312
v 13.170036 2.932822 -7.981102
v -7.301417 4.214041 -8.000000
v -7.301417 4.277268 -7.959770
v -7.301417 4.340496 -8.000000
v 13.174116 4.340496 -8.000000
v 13.174116 4.277268 -7.959770
v 13.174116 4.214041 -8.000000
v -7.301417 4.319163 -7.981102
v -7.301417 4.235373 -7.981102
v 13.174116 4.235373 -7.981102
v -7.301417 4.337289 -7.988611
v -7.301417 4.338975 -7.989738
v -7.301417 4.340101 -7.991422
v -7.301417 4.340496 -7.993411
v 13.174116 4.337289 -7.988611
v 13.174116 4.340496 -7.993411
v 13.174116 4.340101 -7.991422
v 13.174116 4.338975 -7.989738
v -7.301417 4.311654 -7.962977
v -7.301417 4.306855 -7.959770
v -7.301417 4.308843 -7.960165
v -7.301417 4.310528 -7.961292
v 13.169954 4.311631 -7.962920
v 13.172102 4.310474 -7.961295
v 13.173594 4.308664 -7.960167
v 13.174116 4.306525 -7.959770
v -7.301417 4.242882 -7.962977
v -7.301417 4.244009 -7.961292
v -7.301417 4.245694 -7.960165
v -7.301417 4.247682 -7.959770
v 13.174116 4.242882 -7.962977
v 13.174116 4.247682 -7.959770
v 13.174116 4.245694 -7.960165
v 13.174116 4.244009 -7.961292
v -7.301417 4.217247 -7.988611
v -7.301417 4.214041 -7.993411
v -7.301417 4.214436 -7.991422
v -7.301417 4.215562 -7.989738
v 13.174116 4.217247 -7.988611
v 13.174116 4.215562 -7.989738
v 13.174116 4.214436 -7.991422
v 13.174116 4.214041 -7.993411
v 13.172079 4.319877 -7.981400
v 13.173573 4.321829 -7.982207
v 13.174116 4.324496 -7.983312
v 13.170036 4.319163 -7.981102
v -7.301417 5.600382 -8.000000
v -7.301417 5.663610 -7.959770
v -7.301417 5.726837 -8.000000
v 13.174116 5.726837 -8.000000
v 13.174116 5.663610 -7.959770
v 13.174116 5.600382 -8.000000
v -7.301417 5.705504 -7.981102
v -7.301417 5.621715 -7.981102
v 13.174116 5.621715 -7.981102
v -7.301417 5.723630 -7.988611
v -7.301417 5.725316 -7.989738
v -7.301417 5.726442 -7.991422
v -7.301417 5.726837 -7.993411
v 13.174116 5.723630 -7.988611
v 13.174116 5.726837 -7.993411
v 13.174116 5.726442 -7.991422
v 13.174116 5.725316 -7.989738
v -7.301417 5.697995 -7.962977
v -7.301417 5.693196 -7.959770
v -7.301417 5.695184 -7.960165
v -7.301417 5.696869 -7.961292
v 13.169954 5.697972 -7.962920
v 13.172102 5.696815 -7.961295
v 13.173594 5.695005 -7.960167
v 13.174116 5.692866 -7.959770
v -7.301417 5.629223 -7.962977
v -7.301417 5.630350 -7.961292
v -7.301417 5.632035 -7.960165
v -7.301417 5.634023 -7.959770
v 13.174116 5.629223 -7.962977
v 13.174116 5.634023 -7.959770
v 13.174116 5.632035 -7.960165
v 13.174116 5.630350 -7.961292
v -7.301417 5.603588 -7.988611
v -7.301417 5.600382 -7.993411
v -7.301417 5.600777 -7.991422
v -7.301417 5.601903 -7.989738
v 13.174116 5.603588 -7.988611
v 13.174116 5.601903 -7.989738
v 13.174116 5.600777 -7.991422
v 13.174116 5.600382 -7.993411
v 13.172079 5.706218 -7.981400
v 13.173573 5.708170 -7.982207
v 13.174116 5.710837 -7.983312
v 13.170036 5.705504 -7.981102
v -7.301417 6.986722 -8.000000
v -7.301417 7.049950 -7.959770
v -7.301417 7.113178 -8.000000
v 13.174116 7.113178 -8.000000
v 13.174116 7.049950 -7.959770
v 13.174116 6.986722 -8.000000
v -7.301417 7.091845 -7.981102
v -7.301417 7.008055 -7.981102
v 13.174116 7.008055 -7.981102
v -7.301417 7.109971 -7.988611
v -7.301417 7.111657 -7.989738
v -7.301417 7.112782 -7.991422
v -7.301417 7.113178 -7.993411
v 13.174116 7.109971 -7.988611
v 13.174116 7.113178 -7.993411
v 13.174116 7.112782 -7.991422
v 13.174116 7.111657 -7.989738
v -7.301417 7.084336 -7.962977
v -7.301417 7.079536 -7.959770
v -7.301417 7.081524 -7.960165
v -7.301417 7.083210 -7.961292
v 13.169954 7.084312 -7.962920
v 13.172102 7.083156 -7.961295
v 13.173594 7.081346 -7.960167
v 13.174116 7.079206 -7.959770
v -7.301417 7.015564 -7.962977
v -7.301417 7.016690 -7.961292
v -7.301417 7.018375 -7.960165
v -7.301417 7.020363 -7.959770
v 13.174116 7.015564 -7.962977
v 13.174116 7.020363 -7.959770
v 13.174116 7.018375 -7.960165
v 13.174116 7.016690 -7.961292
v -7.301417 6.989929 -7.988611
v -7.301417 6.986722 -7.993411
v -7.301417 6.987117 -7.991422
v -7.301417 6.988244 -7.989738
v 13.174116 6.989929 -7.988611
v 13.174116 6.988244 -7.989738
v 13.174116 6.987117 -7.991422
v 13.174116 6.986722 -7.993411
v 13.172079 7.092559 -7.981400
v 13.173573 7.094511 -7.982207
v 13.174116 7.097178 -7.983312
v 13.170036 7.091845 -7.981102
vt 0.375000 0.000000
vt 0.625000 0.000000
vt 0.375000 0.250000
vt 0.625000 0.250000
vt 0.375000 0.500000
vt 0.625000 0.500000
vt 0.375000 0.750000
vt 0.625000 0.750000
vt 0.375000 1.000000
vt 0.625000 1.000000
vt 0.875000 0.000000
vt 0.875000 0.250000
vt 0.125000 0.000000
vt 0.125000 0.250000
vt 0.375000 0.250000
vt 0.415948 0.250000
vt 0.415947 0.500000
vt 0.375000 0.500000
vt 0.375000 0.750000
vt 0.415948 0.750000
vt 0.415947 1.000000
vt 0.375000 1.000000
vt 0.875000 0.050681
vt 0.625000 0.050680
vt 0.624999 0.000000
vt 0.875000 0.000000
vt 0.625000 1.000000
vt 0.465707 1.000000
vt 0.465702 0.750000
vt 0.624999 0.750000
vt 0.435918 0.250000
vt 0.435886 0.499972
vt 0.453186 0.250000
vt 0.453160 0.499961
vt 0.465691 0.250000
vt 0.465702 0.500000
vt 0.625000 0.199321
vt 0.625000 0.191983
vt 0.874964 0.194177
vt 0.874933 0.199161
vt 0.625000 0.186669
vt 0.875000 0.190352
vt 0.625000 0.183492
vt 0.875000 0.182837
vt 0.625000 0.066508
vt 0.625000 0.063331
vt 0.875000 0.063331
vt 0.875000 0.066508
vt 0.625000 0.058017
vt 0.875000 0.058018
vt 0.453198 1.000000
vt 0.453194 0.750000
vt 0.435924 1.000000
vt 0.435923 0.750000
vt 0.625000 0.125000
vt 0.875000 0.125000
vt 0.625000 0.250000
vt 0.874934 0.250000
vt 0.625000 0.500877
vt 0.625000 0.503432
vt 0.578128 0.500001
vt 0.625000 0.499934
vt 0.624996 0.559646
vt 0.624996 0.567160
vt 0.874935 0.249058
vt 0.874938 0.246506
vt 0.375000 0.250000
vt 0.415948 0.250000
vt 0.415947 0.500000
vt 0.375000 0.500000
vt 0.375000 0.750000
vt 0.415948 0.750000
vt 0.415947 1.000000
vt 0.375000 1.000000
vt 0.875000 0.050681
vt 0.625000 0.050680
vt 0.624999 0.000000
vt 0.875000 0.000000
vt 0.625000 1.000000
vt 0.465707 1.000000
vt 0.465702 0.750000
vt 0.624999 0.750000
vt 0.435918 0.250000
vt 0.435886 0.499972
vt 0.453186 0.250000
vt 0.453160 0.499961
vt 0.465691 0.250000
vt 0.465702 0.500000
vt 0.625000 0.199321
vt 0.625000 0.191983
vt 0.874964 0.194177
vt 0.874933 0.199161
vt 0.625000 0.186669
vt 0.875000 0.190352
vt 0.625000 0.183492
vt 0.875000 0.182837
vt 0.625000 0.066508
vt 0.625000 0.063331
vt 0.875000 0.063331
vt 0.875000 0.066508
vt 0.625000 0.058017
vt 0.875000 0.058018
vt 0.453198 1.000000
vt 0.453194 0.750000
vt 0.435924 1.000000
vt 0.435923 0.750000
vt 0.625000 0.125000
vt 0.875000 0.125000
vt 0.625000 0.250000
vt 0.874934 0.250000
vt 0.625000 0.500877
vt 0.625000 0.503432
vt 0.578128 0.500001
vt 0.625000 0.499934
vt 0.624996 0.559646
vt 0.624996 0.567160
vt 0.874935 0.249058
vt 0.874938 0.246506
vt 0.375000 0.250000
vt 0.415948 0.250000
vt 0.415947 0.500000
vt 0.375000 0.500000
vt 0.375000 0.750000
vt 0.415948 0.750000
vt 0.415947 1.000000
vt 0.375000 1.000000
vt 0.875000 0.050681
vt 0.625000 0.050680
vt 0.624999 0.000000
vt 0.875000 0.000000
vt 0.625000 1.000000
vt 0.465707 1.000000
vt 0.465702 0.750000
vt 0.624999 0.750000
vt 0.435918 0.250000
vt 0.435886 0.499972
vt 0.453186 0.250000
vt 0.453160 0.499961
vt 0.465691 0.250000
vt 0.465702 0.500000
vt 0.625000 0.199321
vt 0.625000 0.191983
vt 0.874964 0.194177
vt 0.874933 0.199161
vt 0.625000 0.186669
vt 0.875000 0.190352
vt 0.625000 0.183492
vt 0.875000 0.182837
vt 0.625000 0.066508
vt 0.625000 0.063331
vt 0.875000 0.063331
vt 0.875000 0.066508
vt 0.625000 0.058017
vt 0.875000 0.058018
vt 0.453198 1.000000
vt 0.453194 0.750000
vt 0.435924 1.000000
vt 0.435923 0.750000
vt 0.625000 0.125000
vt 0.875000 0.125000
vt 0.625000 0.250000
vt 0.874934 0.250000
vt 0.625000 0.500877
vt 0.625000 0.503432
vt 0.578128 0.500001
vt 0.625000 0.499934
vt 0.624996 0.559646
vt 0.624996 0.567160
vt 0.874935 0.249058
vt 0.874938 0.246506
vt 0.375000 0.250000
vt 0.415948 0.250000
vt 0.415947 0.500000
vt 0.375000 0.500000
vt 0.375000 0.750000
vt 0.415948 0.750000
vt 0.415947 1.000000
vt 0.375000 1.000000
vt 0.875000 0.050681
vt 0.625000 0.050680
vt 0.624999 0.000000
vt 0.875000 0.000000
vt 0.625000 1.000000
vt 0.465707 1.000000
vt 0.465702 0.750000
vt 0.624999 0.750000
vt 0.435918 0.250000
vt 0.435886 0.499972
vt 0.453186 0.250000
vt 0.453160 0.499961
vt 0.465691 0.250000
vt 0.465702 0.500000
vt 0.625000 0.199321
vt 0.625000 0.191983
vt 0.874964 0.194177
vt 0.874933 0.199161
vt 0.625000 0.186669
vt 0.875000 0.190352
vt 0.625000 0.183492
vt 0.875000 0.182837
vt 0.625000 0.066508
vt 0.625000 0.063331
vt 0.875000 0.063331
vt 0.875000 0.066508
vt 0.625000 0.058017
vt 0.875000 0.058018
vt 0.453198 1.000000
vt 0.453194 0.750000
vt 0.435924 1.000000
vt 0.435923 0.750000
vt 0.625000 0.125000
vt 0.875000 0.125000
vt 0.625000 0.250000
vt 0.874934 0.250000
vt 0.625000 0.500877
vt 0.625000 0.503432
vt 0.578128 0.500001
vt 0.625000 0.499934
vt 0.624996 0.559646
vt 0.624996 0.567160
vt 0.874935 0.249058
vt 0.874938 0.246506
vt 0.375000 0.250000
vt 0.415948 0.250000
vt 0.415947 0.500000
vt 0.375000 0.500000
vt 0.375000 0.750000
vt 0.415948 0.750000
vt 0.415947 1.000000
vt 0.375000 1.000000
vt 0.875000 0.050681
vt 0.625000 0.050680
vt 0.624999 0.000000
vt 0.875000 0.000000
vt 0.625000 1.000000
vt 0.465707 1.000000
vt 0.465702 0.750000
vt 0.624999 0.750000
vt 0.435918 0.250000
vt 0.435886 0.499972
vt 0.453186 0.250000
vt 0.453160 0.499961
vt 0.465691 0.250000
vt 0.465702 0.500000
vt 0.625000 0.199321
vt 0.625000 0.191983
vt 0.874964 0.194177
vt 0.874933 0.199161
vt 0.625000 0.186669
vt 0.875000 0.190352
vt 0.625000 0.183492
vt 0.875000 0.182837
vt 0.625000 0.066508
vt 0.625000 0.063331
vt 0.875000 0.063331
vt 0.875000 0.066508
vt 0.625000 0.058017
vt 0.875000 0.058018
vt 0.453198 1.000000
vt 0.453194 0.750000
vt 0.435924 1.000000
vt 0.435923 0.750000
vt 0.625000 0.125000
vt 0.875000 0.125000
vt 0.625000 0.250000
vt 0.874934 0.250000
vt 0.625000 0.500877
vt 0.625000 0.503432
vt 0.578128 0.500001
vt 0.625000 0.499934
vt 0.624996 0.559646
vt 0.624996 0.567160
vt 0.874935 0.249058
vt 0.874938 0.246506
vt 0.375000 0.250000
vt 0.415948 0.250000
vt 0.415947 0.500000
vt 0.375000 0.500000
vt 0.375000 0.750000
vt 0.415948 0.750000
vt 0.415947 1.000000
vt 0.375000 1.000000
vt 0.875000 0.050681
vt 0.625000 0.050680
vt 0.624999 0.000000
vt 0.875000 0.000000
vt 0.625000 1.000000
vt 0.465707 1.000000
vt 0.465702 0.750000
vt 0.624999 0.750000
vt 0.435918 0.250000
vt 0.435886 0.499972
vt 0.453186 0.250000
vt 0.453160 0.499961
vt 0.465691 0.250000
vt 0.465702 0.500000
vt 0.625000 0.199321
vt 0.625000 0.191983
vt 0.874964 0.194177
vt 0.874933 0.199161
vt 0.625000 0.186669
vt 0.875000 0.190352
vt 0.625000 0.183492
vt 0.875000 0.182837
vt 0.625000 0.066508
vt 0.625000 0.063331
vt 0.875000 0.063331
vt 0.875000 0.066508
vt 0.625000 0.058017
vt 0.875000 0.058018
vt 0.453198 1.000000
vt 0.453194 0.750000
vt 0.435924 1.000000
vt 0.435923 0.750000
vt 0.625000 0.125000
vt 0.875000 0.125000
vt 0.625000 0.250000
vt 0.874934 0.250000
vt 0.625000 0.500877
vt 0.625000 0.503432
vt 0.578128 0.500001
vt 0.625000 0.499934
vt 0.624996 0.559646
vt 0.624996 0.567160
vt 0.874935 0.249058
vt 0.874938 0.246506
vt 0.375000 0.250000
vt 0.415948 0.250000
vt 0.415947 0.500000
vt 0.375000 0.500000
vt 0.375000 0.750000
vt 0.415948 0.750000
vt 0.415947 1.000000
vt 0.375000 1.000000
vt 0.875000 0.050681
vt 0.625000 0.050680
vt 0.624999 0.000000
vt 0.875000 0.000000
vt 0.625000 1.000000
vt 0.465707 1.000000
vt 0.465702 0.750000
vt 0.624999 0.750000
vt 0.435918 0.250000
vt 0.435886 0.499972
vt 0.453186 0.250000
vt 0.453160 0.499961
vt 0.465691 0.250000
vt 0.465702 0.500000
vt 0.625000 0.199321
vt 0.625000 0.191983
vt 0.874964 0.194177
vt 0.874933 0.199161
vt 0.625000 0.186669
vt 0.875000 0.190352
vt 0.625000 0.183492
vt 0.875000 0.182837
vt 0.625000 0.066508
vt 0.625000 0.063331
vt 0.875000 0.063331
vt 0.875000 0.066508
vt 0.625000 0.058017
vt 0.875000 0.058018
vt 0.453198 1.000000
vt 0.453194 0.750000
vt 0.435924 1.000000
vt 0.435923 0.750000
vt 0.625000 0.125000
vt 0.875000 0.125000
vt 0.625000 0.250000
vt 0.874934 0.250000
vt 0.625000 0.500877
vt 0.625000 0.503432
vt 0.578128 0.500001
vt 0.625000 0.499934
vt 0.624996 0.559646
vt 0.624996 0.567160
vt 0.874935 0.249058
vt 0.874938 0.246506
vt 0.375000 0.250000
vt 0.415948 0.250000
vt 0.415947 0.500000
vt 0.375000 0.500000
vt 0.375000 0.750000
vt 0.415948 0.750000
vt 0.415947 1.000000
vt 0.375000 1.000000
vt 0.875000 0.050681
vt 0.625000 0.050680
vt 0.624999 0.000000
vt 0.875000 0.000000
vt 0.625000 1.000000
vt 0.465707 1.000000
vt 0.465702 0.750000
vt 0.624999 0.750000
vt 0.435918 0.250000
vt 0.435886 0.499972
vt 0.453186 0.250000
vt 0.453160 0.499961
vt 0.465691 0.250000
vt 0.465702 0.500000
vt 0.625000 0.199321
vt 0.625000 0.191983
vt 0.874964 0.194177
vt 0.874933 0.199161
vt 0.625000 0.186669
vt 0.875000 0.190352
vt 0.625000 0.183492
vt 0.875000 0.182837
vt 0.625000 0.066508
vt 0.625000 0.063331
vt 0.875000 0.063331
vt 0.875000 0.066508
vt 0.625000 0.058017
vt 0.875000 0.058018
vt 0.453198 1.000000
vt 0.453194 0.750000
vt 0.435924 1.000000
vt 0.435923 0.750000
vt 0.625000 0.125000
vt 0.875000 0.125000
vt 0.625000 0.250000
vt 0.874934 0.250000
vt 0.625000 0.500877
vt 0.625000 0.503432
vt 0.578128 0.500001
vt 0.625000 0.499934
vt 0.624996 0.559646
vt 0.624996 0.567160
vt 0.874935 0.249058
vt 0.874938 0.246506
vt 0.375000 0.250000
vt 0.415948 0.250000
vt 0.415947 0.500000
vt 0.375000 0.500000
vt 0.375000 0.750000
vt 0.415948 0.750000
vt 0.415947 1.000000
vt 0.375000 1.000000
vt 0.875000 0.050681
vt 0.625000 0.050680
vt 0.624999 0.000000
vt 0.875000 0.000000
vt 0.625000 1.000000
vt 0.465707 1.000000
vt 0.465702 0.750000
vt 0.624999 0.750000
vt 0.435918 0.250000
vt 0.435886 0.499972
vt 0.453186 0.250000
vt 0.453160 0.499961
vt 0.465691 0.250000
vt 0.465702 0.500000
vt 0.625000 0.199321
vt 0.625000 0.191983
vt 0.874964 0.194177
vt 0.874933 0.199161
vt 0.625000 0.186669
vt 0.875000 0.190352
vt 0.625000 0.183492
vt 0.875000 0.182837
vt 0.625000 0.066508
vt 0.625000 0.063331
vt 0.875000 0.063331
vt 0.875000 0.066508
vt 0.625000 0.058017
vt 0.875000 0.058018
vt 0.453198 1.000000
vt 0.453194 0.750000
vt 0.435924 1.000000
vt 0.435923 0.750000
vt 0.625000 0.125000
vt 0.875000 0.125000
vt 0.625000 0.250000
vt 0.874934 0.250000
vt 0.625000 0.500877
vt 0.625000 0.503432
vt 0.578128 0.500001
vt 0.625000 0.499934
vt 0.624996 0.559646
vt 0.624996 0.567160
vt 0.874935 0.249058
vt 0.874938 0.246506
vt 0.375000 0.250000
vt 0.415948 0.250000
vt 0.415947 0.500000
vt 0.375000 0.500000
vt 0.375000 0.750000
vt 0.415948 0.750000
vt 0.415947 1.000000
vt 0.375000 1.000000
vt 0.875000 0.050681
vt 0.625000 0.050680
vt 0.624999 0.000000
vt 0.875000 0.000000
vt 0.625000 1.000000
vt 0.465707 1.000000
vt 0.465702 0.750000
vt 0.624999 0.750000
vt 0.435918 0.250000
vt 0.435886 0.499972
vt 0.453186 0.250000
vt 0.453160 0.499961
vt 0.465691 0.250000
vt 0.465702 0.500000
vt 0.625000 0.199321
vt 0.625000 0.191983
vt 0.874964 0.194177
vt 0.874933 0.199161
vt 0.625000 0.186669
vt 0.875000 0.190352
vt 0.625000 0.183492
vt 0.875000 0.182837
vt 0.625000 0.066508
vt 0.625000 0.063331
vt 0.875000 0.063331
vt 0.875000 0.066508
vt 0.625000 0.058017
vt 0.875000 0.058018
vt 0.453198 1.000000
vt 0.453194 0.750000
vt 0.435924 1.000000
vt 0.435923 0.750000
vt 0.625000 0.125000
vt 0.875000 0.125000
vt 0.625000 0.250000
vt 0.874934 0.250000
vt 0.625000 0.500877
vt 0.625000 0.503432
vt 0.578128 0.500001
vt 0.625000 0.499934
vt 0.624996 0.559646
vt 0.624996 0.567160
vt 0.874935 0.249058
vt 0.874938 0.246506
vt 0.375000 0.250000
vt 0.415948 0.250000
vt 0.415947 0.500000
vt 0.375000 0.500000
vt 0.375000 0.750000
vt 0.415948 0.750000
vt 0.415947 1.000000
vt 0.375000 1.000000
vt 0.875000 0.050681
vt 0.625000 0.050680
vt 0.624999 0.000000
vt 0.875000 0.000000
vt 0.625000 1.000000
vt 0.465707 1.000000
vt 0.465702 0.750000
vt 0.624999 0.750000
vt 0.435918 0.250000
vt 0.435886 0.499972
vt 0.453186 0.250000
vt 0.453160 0.499961
vt 0.465691 0.250000
vt 0.465702 0.500000
vt 0.625000 0.199321
vt 0.625000 0.191983
vt 0.874964 0.194177
vt 0.874933 0.199161
vt 0.625000 0.186669
vt 0.875000 0.190352
vt 0.625000 0.183492
vt 0.875000 0.182837
vt 0.625000 0.066508
vt 0.625000 0.063331
vt 0.875000 0.063331
vt 0.875000 0.066508
vt 0.625000 0.058017
vt 0.875000 0.058018
vt 0.453198 1.000000
vt 0.453194 0.750000
vt 0.435924 1.000000
vt 0.435923 0.750000
vt 0.625000 0.125000
vt 0.875000 0.125000
vt 0.625000 0.250000
vt 0.874934 0.250000
vt 0.625000 0.500877
vt 0.625000 0.503432
vt 0.578128 0.500001
vt 0.625000 0.499934
vt 0.624996 0.559646
vt 0.624996 0.567160
vt 0.874935 0.249058
vt 0.874938 0.246506
vn 0.000000 0.000000 1.000000
vn 0.000000 0.000000 1.000000
vn 0.000000 0.000000 1.000000
vn 0.000000 0.000000 1.000000
vn 0.000000 1.000000 0.000000
vn 0.000000 1.000000 0.000000
vn 0.000000 1.000000 0.000000
vn 0.000000 1.000000 0.000000
vn 0.000000 0.000000 -1.000000
vn 0.000000 0.000000 -1.000000
vn 0.000000 0.000000 -1.000000
vn 0.000000 0.000000 -1.000000
vn 0.000000 -1.000000 0.000000
vn 0.000000 -1.000000 0.000000
vn 0.000000 -1.000000 0.000000
vn 0.000000 -1.000000 0.000000
vn 1.000000 0.000000 0.000000
vn 1.000000 0.000000 0.000000
vn 1.000000 0.000000 0.000000
vn 1.000000 0.000000 0.000000
vn -1.000000 0.000000 0.000000
vn -1.000000 0.000000 0.000000
vn -1.000000 0.000000 0.000000
vn -1.000000 0.000000 0.000000
vn 0.000000 1.000000 0.000000
vn 0.046049 0.998939 0.000000
vn 0.046049 0.998939 0.000000
vn 0.000000 1.000000 0.000000
vn 0.000000 -1.000000 0.000000
vn 0.046022 -0.998940 0.000000
vn 0.046022 -0.998940 0.000000
vn 0.000000 -1.000000 0.000000
vn 0.399563 -0.916706 0.000000
vn 0.399563 -0.916706 0.000000
vn 0.382724 -0.923863 0.000000
vn 0.382724 -0.923863 0.000000
vn 0.923886 -0.382668 0.000000
vn 0.916703 -0.399569 0.000000
vn 0.916703 -0.399569 0.000000
vn 0.923886 -0.382668 0.000000
vn 0.382726 0.923862 0.000000
vn 0.382726 0.923862 0.000000
vn 0.707115 0.707099 0.000000
vn 0.707115 0.707099 0.000000
vn 0.916712 0.399550 -0.000000
vn 0.916712 0.399550 -0.000000
vn 0.400638 0.916236 -0.000000
vn 0.720208 0.693759 -0.000002
vn 0.783378 0.621545 0.000082
vn 0.408662 0.912686 0.000005
vn 0.928509 0.371311 -0.000003
vn 0.948712 0.316143 0.000033
vn 0.999979 0.006493 -0.000000
vn 0.999985 0.005546 -0.000000
vn 0.999979 -0.006486 0.000000
vn 0.923808 -0.382857 0.000000
vn 0.923808 -0.382857 0.000000
vn 0.999979 -0.006486 0.000000
vn 0.707020 -0.707194 0.000000
vn 0.707020 -0.707194 0.000000
vn 0.707115 -0.707099 0.000000
vn 0.707115 -0.707099 0.000000
vn 0.382726 -0.923862 0.000000
vn 0.382726 -0.923862 0.000000
vn 1.000000 0.000000 0.000000
vn 1.000000 0.000000 0.000000
vn 0.382722 0.923863 0.000000
vn 0.382726 0.923862 0.000005
vn 0.923893 0.382652 -0.000000
vn 0.923893 0.382652 -0.000000
vn 0.923893 0.382652 -0.000000
vn 0.923893 0.382652 -0.000000
vn 0.923893 0.382652 -0.000000
vn 0.563634 0.825331 0.033838
vn 0.563634 0.825331 0.033838
vn 0.521942 0.850822 0.060655
vn 0.443026 0.894004 0.066971
vn 0.000000 1.000000 0.000000
vn 0.046064 0.998939 0.000000
vn 0.046064 0.998939 0.000000
vn 0.000000 1.000000 0.000000
vn 0.000000 -1.000000 0.000000
vn 0.046036 -0.998940 0.000000
vn 0.046036 -0.998940 0.000000
vn 0.000000 -1.000000 0.000000
vn 0.399574 -0.916701 0.000000
vn 0.399574 -0.916701 0.000000
vn 0.382716 -0.923866 0.000000
vn 0.382716 -0.923866 0.000000
vn 0.923871 -0.382705 0.000000
vn 0.916692 -0.399594 0.000000
vn 0.916692 -0.399594 0.000000
vn 0.923871 -0.382705 0.000000
vn 0.382740 0.923856 0.000000
vn 0.382740 0.923856 0.000000
vn 0.707142 0.707072 0.000000
vn 0.707142 0.707072 0.000000
vn 0.916700 0.399576 -0.000000
vn 0.916700 0.399576 -0.000000
vn 0.400651 0.916231 -0.000000
vn 0.720147 0.693821 -0.000002
vn 0.783255 0.621701 0.000082
vn 0.408678 0.912679 0.000005
vn 0.928448 0.371461 -0.000003
vn 0.948691 0.316206 0.000033
vn 0.999979 0.006492 -0.000000
vn 0.999985 0.005542 -0.000000
vn 0.999979 -0.006486 0.000000
vn 0.923746 -0.383005 0.000000
vn 0.923746 -0.383005 0.000000
vn 0.999979 -0.006486 0.000000
vn 0.707062 -0.707152 0.000000
vn 0.707062 -0.707152 0.000000
vn 0.707142 -0.707072 0.000000
vn 0.707142 -0.707072 0.000000
vn 0.382740 -0.923856 0.000000
vn 0.382740 -0.923856 0.000000
vn 1.000000 0.000000 0.000000
vn 1.000000 0.000000 0.000000
vn 0.382727 0.923861 -0.000000
vn 0.382731 0.923860 0.000005
vn 0.923877 0.382689 -0.000000
vn 0.923877 0.382689 -0.000000
vn 0.923877 0.382689 -0.000000
vn 0.923877 0.382689 -0.000000
vn 0.923877 0.382689 -0.000000
vn 0.563637 0.825313 0.034221
vn 0.563637 0.825313 0.034221
vn 0.521949 0.850809 0.060772
vn 0.442988 0.894027 0.066912
vn 0.000000 1.000000 0.000000
vn 0.046037 0.998940 0.000000
vn 0.046037 0.998940 0.000000
vn 0.000000 1.000000 0.000000
vn 0.000000 -1.000000 0.000000
vn 0.045982 -0.998942 0.000000
vn 0.045982 -0.998942 0.000000
vn 0.000000 -1.000000 0.000000
vn 0.399579 -0.916699 0.000000
vn 0.399579 -0.916699 0.000000
vn 0.382734 -0.923859 0.000000
vn 0.382734 -0.923859 0.000000
vn 0.923873 -0.382700 0.000000
vn 0.916695 -0.399588 0.000000
vn 0.916695 -0.399588 0.000000
vn 0.923873 -0.382700 0.000000
vn 0.382650 0.923894 0.000000
vn 0.382650 0.923894 0.000000
vn 0.707074 0.707140 0.000000
vn 0.707074 0.707140 0.000000
vn 0.916718 0.399535 -0.000000
vn 0.916718 0.399535 -0.000000
vn 0.400642 0.916235 -0.000000
vn 0.720191 0.693776 -0.000002
vn 0.783329 0.621608 0.000082
vn 0.408671 0.912682 0.000005
vn 0.928467 0.371414 -0.000003
vn 0.948683 0.316230 0.000033
vn 0.999979 0.006491 -0.000000
vn 0.999985 0.005541 -0.000000
vn 0.999979 -0.006485 0.000000
vn 0.923831 -0.382800 0.000000
vn 0.923831 -0.382800 0.000000
vn 0.999979 -0.006485 0.000000
vn 0.707074 -0.707140 0.000000
vn 0.707074 -0.707140 0.000000
vn 0.707074 -0.707140 0.000000
vn 0.707074 -0.707140 0.000000
vn 0.382650 -0.923894 0.000000
vn 0.382650 -0.923894 0.000000
vn 1.000000 0.000000 0.000000
vn 1.000000 0.000000 0.000000
vn 0.382724 0.923863 0.000000
vn 0.382728 0.923861 0.000005
vn 0.923894 0.382650 -0.000000
vn 0.923894 0.382650 -0.000000
vn 0.923894 0.382650 -0.000000
vn 0.923894 0.382650 -0.000000
vn 0.923894 0.382650 -0.000000
vn 0.563988 0.825072 0.034273
vn 0.563988 0.825072 0.034273
vn 0.522099 0.850710 0.060872
vn 0.442933 0.894048 0.066991
vn 0.000000 1.000000 0.000000
vn 0.046033 0.998940 0.000000
vn 0.046033 0.998940 0.000000
vn 0.000000 1.000000 0.000000
vn 0.000000 -1.000000 0.000000
vn 0.045978 -0.998943 0.000000
vn 0.045978 -0.998943 0.000000
vn 0.000000 -1.000000 0.000000
vn 0.399574 -0.916701 0.000000
vn 0.399574 -0.916701 0.000000
vn 0.382726 -0.923862 0.000000
vn 0.382726 -0.923862 0.000000
vn 0.923889 -0.382661 0.000000
vn 0.916712 -0.399548 0.000000
vn 0.916712 -0.399548 0.000000
vn 0.923889 -0.382661 0.000000
vn 0.382611 0.923910 0.000000
vn 0.382611 0.923910 0.000000
vn 0.707116 0.707098 0.000000
vn 0.707116 0.707098 0.000000
vn 0.916720 0.399529 -0.000000
vn 0.916720 0.399529 -0.000000
vn 0.400637 0.916237 -0.000000
vn 0.720123 0.693847 -0.000002
vn 0.783324 0.621614 0.000082
vn 0.408659 0.912687 0.000005
vn 0.928483 0.371375 -0.000003
vn 0.948699 0.316181 0.000033
vn 0.999979 0.006490 -0.000000
vn 0.999985 0.005544 -0.000000
vn 0.999979 -0.006484 0.000000
vn 0.923770 -0.382949 0.000000
vn 0.923770 -0.382949 0.000000
vn 0.999979 -0.006484 0.000000
vn 0.707006 -0.707207 0.000000
vn 0.707006 -0.707207 0.000000
vn 0.707116 -0.707098 0.000000
vn 0.707116 -0.707098 0.000000
vn 0.382611 -0.923910 0.000000
vn 0.382611 -0.923910 0.000000
vn 1.000000 0.000000 0.000000
vn 1.000000 0.000000 0.000000
vn 0.382732 0.923860 -0.000000
vn 0.382735 0.923858 0.000005
vn 0.923894 0.382649 -0.000000
vn 0.923894 0.382649 -0.000000
vn 0.923894 0.382649 -0.000000
vn 0.923894 0.382649 -0.000000
vn 0.923894 0.382649 -0.000000
vn 0.563305 0.825574 0.033404
vn 0.563305 0.825574 0.033404
vn 0.521653 0.851014 0.060440
vn 0.443000 0.894022 0.066895
vn 0.000000 1.000000 0.000000
vn 0.046089 0.998937 0.000000
vn 0.046089 0.998937 0.000000
vn 0.000000 1.000000 0.000000
vn 0.000000 -1.000000 0.000000
vn 0.046034 -0.998940 0.000000
vn 0.046034 -0.998940 0.000000
vn 0.000000 -1.000000 0.000000
vn 0.399585 -0.916696 0.000000
vn 0.399585 -0.916696 0.000000
vn 0.382733 -0.923859 0.000000
vn 0.382733 -0.923859 0.000000
vn 0.923873 -0.382698 0.000000
vn 0.916700 -0.399576 0.000000
vn 0.916700 -0.399576 0.000000
vn 0.923873 -0.382698 0.000000
vn 0.382752 0.923851 0.000000
vn 0.382752 0.923851 0.000000
vn 0.707158 0.707055 0.000000
vn 0.707158 0.707055 0.000000
vn 0.916708 0.399557 0.000000
vn 0.916708 0.399557 0.000000
vn 0.400648 0.916232 -0.000000
vn 0.720162 0.693805 -0.000002
vn 0.783332 0.621604 0.000082
vn 0.408669 0.912683 0.000005
vn 0.928498 0.371336 -0.000003
vn 0.948710 0.316147 0.000033
vn 0.999979 0.006490 -0.000000
vn 0.999985 0.005544 -0.000000
vn 0.999979 -0.006469 0.000000
vn 0.923786 -0.382910 0.000000
vn 0.923786 -0.382910 0.000000
vn 0.999979 -0.006469 0.000000
vn 0.706939 -0.707275 0.000000
vn 0.706939 -0.707275 0.000000
vn 0.707158 -0.707055 0.000000
vn 0.707158 -0.707055 0.000000
vn 0.382752 -0.923851 0.000000
vn 0.382752 -0.923851 0.000000
vn 1.000000 0.000000 0.000000
vn 1.000000 0.000000 0.000000
vn 0.382739 0.923856 0.000000
vn 0.382742 0.923855 0.000005
vn 0.923879 0.382686 0.000000
vn 0.923879 0.382686 0.000000
vn 0.923879 0.382686 0.000000
vn 0.923878 0.382686 0.000000
vn 0.923879 0.382686 0.000000
vn 0.563969 0.825082 0.034333
vn 0.563969 0.825082 0.034333
vn 0.522130 0.850687 0.060922
vn 0.443025 0.894007 0.066934
vn 0.000000 1.000000 0.000000
vn 0.045979 0.998942 0.000000
vn 0.045979 0.998942 0.000000
vn 0.000000 1.000000 0.000000
vn 0.000000 -1.000000 0.000000
vn 0.045979 -0.998942 0.000000
vn 0.045979 -0.998942 0.000000
vn 0.000000 -1.000000 0.000000
vn 0.399562 -0.916706 0.000000
vn 0.399562 -0.916706 0.000000
vn 0.382720 -0.923865 0.000000
vn 0.382720 -0.923865 0.000000
vn 0.923874 -0.382697 0.000000
vn 0.916688 -0.399604 0.000000
vn 0.916688 -0.399604 0.000000
vn 0.923874 -0.382697 0.000000
vn 0.382689 0.923877 0.000000
vn 0.382689 0.923877 0.000000
vn 0.707090 0.707123 0.000000
vn 0.707090 0.707123 0.000000
vn 0.916700 0.399577 -0.000000
vn 0.916700 0.399577 -0.000000
vn 0.400643 0.916234 -0.000000
vn 0.720146 0.693822 -0.000002
vn 0.783282 0.621667 0.000082
vn 0.408671 0.912682 0.000005
vn 0.928482 0.371378 -0.000003
vn 0.948707 0.316157 0.000034
vn 0.999979 0.006489 -0.000000
vn 0.999985 0.005543 -0.000000
vn 0.999979 -0.006482 0.000000
vn 0.923820 -0.382828 0.000000
vn 0.923820 -0.382828 0.000000
vn 0.999979 -0.006482 0.000000
vn 0.706981 -0.707233 0.000000
vn 0.706981 -0.707233 0.000000
vn 0.707090 -0.707123 0.000000
vn 0.707090 -0.707123 0.000000
vn 0.382689 -0.923877 0.000000
vn 0.382689 -0.923877 0.000000
vn 1.000000 0.000000 0.000000
vn 1.000000 0.000000 0.000000
vn 0.382721 0.923864 0.000000
vn 0.382724 0.923863 0.000005
vn 0.923886 0.382668 -0.000000
vn 0.923886 0.382668 -0.000000
vn 0.923886 0.382668 -0.000000
vn 0.923886 0.382668 -0.000000
vn 0.923886 0.382668 -0.000000
vn 0.563605 0.825288 0.035352
vn 0.563605 0.825288 0.035352
vn 0.521847 0.850821 0.061479
vn 0.442957 0.894030 0.067083
vn 0.000000 1.000000 0.000000
vn 0.000000 0.998940 0.046040
vn 0.000000 0.998940 0.046040
vn 0.000000 1.000000 0.000000
vn 0.000000 -1.000000 0.000000
vn 0.000000 -0.998941 0.046018
vn 0.000000 -0.998941 0.046018
vn 0.000000 -1.000000 0.000000
vn 0.000000 -0.916703 0.399568
vn 0.000000 -0.916703 0.399568
vn 0.000000 -0.923865 0.382719
vn 0.000000 -0.923865 0.382719
vn 0.000000 -0.382689 0.923877
vn 0.000000 -0.399575 0.916700
vn 0.000000 -0.399575 0.916700
vn 0.000000 -0.382689 0.923877
vn 0.000000 0.923868 0.382711
vn 0.000000 0.923868 0.382711
vn 0.000000 0.707094 0.707119
vn 0.000000 0.707094 0.707119
vn 0.000000 0.399566 0.916705
vn 0.000000 0.399566 0.916705
vn 0.000000 0.916236 0.400640
vn 0.000002 0.693750 0.720216
vn -0.000070 0.621460 0.783446
vn -0.000004 0.912686 0.408662
vn 0.000003 0.371216 0.928546
vn -0.000028 0.315981 0.948765
vn 0.000000 0.006488 0.999979
vn 0.000000 0.005542 0.999985
vn -0.000000 -0.006481 0.999979
vn 0.000000 -0.382893 0.923793
vn 0.000000 -0.382893 0.923793
vn -0.000000 -0.006481 0.999979
vn 0.000000 -0.707191 0.707023
vn 0.000000 -0.707191 0.707023
vn 0.000000 -0.707094 0.707119
vn 0.000000 -0.707094 0.707119
vn 0.000000 -0.923860 0.382731
vn 0.000000 -0.923860 0.382731
vn -0.000000 0.000000 1.000000
vn -0.000000 0.000000 1.000000
vn 0.000000 0.923861 0.382728
vn -0.000004 0.923860 0.382730
vn 0.000000 0.382684 0.923880
vn 0.000000 0.382684 0.923880
vn 0.000000 0.382684 0.923880
vn 0.000000 0.382684 0.923880
vn 0.000000 0.382684 0.923880
vn -0.033885 0.825386 0.563552
vn -0.033885 0.825386 0.563552
vn -0.060819 0.850752 0.522036
vn -0.067145 0.893908 0.443193
vn 0.000000 1.000000 0.000000
vn 0.000000 0.998939 0.046061
vn 0.000000 0.998939 0.046061
vn 0.000000 1.000000 0.000000
vn 0.000000 -1.000000 0.000000
vn 0.000000 -0.998940 0.046040
vn 0.000000 -0.998940 0.046040
vn 0.000000 -1.000000 0.000000
vn 0.000000 -0.916705 0.399565
vn 0.000000 -0.916705 0.399565
vn 0.000000 -0.923865 0.382719
vn 0.000000 -0.923865 0.382719
vn 0.000000 -0.382687 0.923878
vn 0.000000 -0.399572 0.916702
vn 0.000000 -0.399572 0.916702
vn 0.000000 -0.382687 0.923878
vn 0.000000 0.923868 0.382711
vn 0.000000 0.923868 0.382711
vn 0.000000 0.707118 0.707096
vn 0.000000 0.707118 0.707096
vn 0.000000 0.399567 0.916704
vn 0.000000 0.399567 0.916704
vn 0.000000 0.916234 0.400643
vn 0.000002 0.693701 0.720263
vn -0.000070 0.621437 0.783464
vn -0.000004 0.912682 0.408672
vn 0.000003 0.371213 0.928548
vn -0.000028 0.315977 0.948767
vn 0.000000 0.006488 0.999979
vn 0.000000 0.005543 0.999985
vn -0.000000 -0.006481 0.999979
vn 0.000000 -0.382893 0.923793
vn 0.000000 -0.382893 0.923793
vn -0.000000 -0.006481 0.999979
vn 0.000000 -0.707191 0.707023
vn 0.000000 -0.707191 0.707023
vn 0.000000 -0.707118 0.707096
vn 0.000000 -0.707118 0.707096
vn 0.000000 -0.923868 0.382711
vn 0.000000 -0.923868 0.382711
vn -0.000000 0.000000 1.000000
vn -0.000000 0.000000 1.000000
vn 0.000000 0.923866 0.382715
vn -0.000004 0.923865 0.382718
vn 0.000000 0.382685 0.923879
vn 0.000000 0.382685 0.923879
vn 0.000000 0.382685 0.923879
vn 0.000000 0.382685 0.923879
vn 0.000000 0.382685 0.923879
vn -0.033885 0.825387 0.563549
vn -0.033885 0.825387 0.563549
vn -0.060819 0.850754 0.522034
vn -0.067074 0.893915 0.443190
vn 0.000000 1.000000 0.000000
vn 0.000000 0.998940 0.046040
vn 0.000000 0.998940 0.046040
vn 0.000000 1.000000 0.000000
vn 0.000000 -1.000000 0.000000
vn 0.000000 -0.998942 0.045996
vn 0.000000 -0.998942 0.045996
vn 0.000000 -1.000000 0.000000
vn 0.000000 -0.916695 0.399587
vn 0.000000 -0.916695 0.399587
vn 0.000000 -0.923858 0.382736
vn 0.000000 -0.923858 0.382736
vn 0.000000 -0.382687 0.923878
vn 0.000000 -0.399572 0.916702
vn 0.000000 -0.399572 0.916702
vn 0.000000 -0.382687 0.923878
vn 0.000000 0.923868 0.382711
vn 0.000000 0.923868 0.382711
vn 0.000000 0.707118 0.707096
vn 0.000000 0.707118 0.707096
vn 0.000000 0.399571 0.916702
vn 0.000000 0.399571 0.916702
vn 0.000000 0.916228 0.400657
vn 0.000002 0.693635 0.720327
vn -0.000070 0.621362 0.783524
vn -0.000004 0.912674 0.408689
vn 0.000003 0.371192 0.928556
vn -0.000028 0.315977 0.948767
vn 0.000000 0.006488 0.999979
vn 0.000000 0.005542 0.999985
vn -0.000000 -0.006481 0.999979
vn 0.000000 -0.382943 0.923772
vn 0.000000 -0.382943 0.923772
vn -0.000000 -0.006481 0.999979
vn 0.000000 -0.707238 0.706976
vn 0.000000 -0.707238 0.706976
vn 0.000000 -0.707118 0.707096
vn 0.000000 -0.707118 0.707096
vn 0.000000 -0.923901 0.382631
vn 0.000000 -0.923901 0.382631
vn -0.000000 0.000000 1.000000
vn -0.000000 0.000000 1.000000
vn -0.000000 0.923863 0.382723
vn -0.000004 0.923862 0.382726
vn 0.000000 0.382686 0.923878
vn 0.000000 0.382686 0.923878
vn 0.000000 0.382686 0.923878
vn 0.000000 0.382686 0.923878
vn 0.000000 0.382686 0.923878
vn -0.034390 0.825369 0.563545
vn -0.034390 0.825369 0.563545
vn -0.060903 0.850745 0.522038
vn -0.066975 0.893918 0.443199
vn 0.000000 1.000000 0.000000
vn 0.000000 0.998940 0.046040
vn 0.000000 0.998940 0.046040
vn 0.000000 1.000000 0.000000
vn 0.000000 -1.000000 0.000000
vn 0.000000 -0.998942 0.045996
vn 0.000000 -0.998942 0.045996
vn 0.000000 -1.000000 0.000000
vn 0.000000 -0.916695 0.399587
vn 0.000000 -0.916695 0.399587
vn 0.000000 -0.923858 0.382736
vn 0.000000 -0.923858 0.382736
vn 0.000000 -0.382687 0.923878
vn 0.000000 -0.399578 0.916699
vn 0.000000 -0.399578 0.916699
vn 0.000000 -0.382687 0.923878
vn 0.000000 0.923901 0.382631
vn 0.000000 0.923901 0.382631
vn 0.000000 0.707118 0.707096
vn 0.000000 0.707118 0.707096
vn 0.000000 0.399566 0.916704
vn 0.000000 0.399566 0.916704
vn 0.000000 0.916234 0.400643
vn 0.000002 0.693636 0.720325
vn -0.000070 0.621319 0.783558
vn -0.000004 0.912683 0.408668
vn 0.000003 0.371193 0.928556
vn -0.000028 0.315994 0.948761
vn 0.000000 0.006488 0.999979
vn 0.000000 0.005542 0.999985
vn -0.000000 -0.006481 0.999979
vn 0.000000 -0.382910 0.923786
vn 0.000000 -0.382910 0.923786
vn -0.000000 -0.006481 0.999979
vn 0.000000 -0.707238 0.706976
vn 0.000000 -0.707238 0.706976
vn 0.000000 -0.707118 0.707096
vn 0.000000 -0.707118 0.707096
vn 0.000000 -0.923868 0.382711
vn 0.000000 -0.923868 0.382711
vn -0.000000 0.000000 1.000000
vn -0.000000 0.000000 1.000000
vn -0.000000 0.923863 0.382724
vn -0.000004 0.923862 0.382726
vn 0.000000 0.382688 0.923878
vn 0.000000 0.382688 0.923878
vn 0.000000 0.382688 0.923878
vn 0.000000 0.382688 0.923878
vn 0.000000 0.382688 0.923878
vn -0.034390 0.825369 0.563546
vn -0.034390 0.825369 0.563546
vn -0.060903 0.850746 0.522036
vn -0.066975 0.893924 0.443187
vn 0.000000 1.000000 0.000000
vn 0.000000 0.998938 0.046083
vn 0.000000 0.998938 0.046083
vn 0.000000 1.000000 0.000000
vn 0.000000 -1.000000 0.000000
vn 0.000000 -0.998942 0.045996
vn 0.000000 -0.998942 0.045996
vn 0.000000 -1.000000 0.000000
vn 0.000000 -0.916702 0.399572
vn 0.000000 -0.916702 0.399572
vn 0.000000 -0.923858 0.382736
vn 0.000000 -0.923858 0.382736
vn 0.000000 -0.382681 0.923881
vn 0.000000 -0.399572 0.916702
vn 0.000000 -0.399572 0.916702
vn 0.000000 -0.382681 0.923881
vn 0.000000 0.923835 0.382791
vn 0.000000 0.923835 0.382791
vn 0.000000 0.707071 0.707143
vn 0.000000 0.707071 0.707143
vn 0.000000 0.399561 0.916707
vn 0.000000 0.399561 0.916707
vn 0.000000 0.916234 0.400643
vn 0.000002 0.693859 0.720111
vn -0.000070 0.621600 0.783335
vn -0.000004 0.912686 0.408662
vn 0.000003 0.371286 0.928519
vn -0.000028 0.316033 0.948748
vn 0.000000 0.006489 0.999979
vn 0.000000 0.005543 0.999985
vn -0.000000 -0.006481 0.999979
vn 0.000000 -0.382910 0.923786
vn 0.000000 -0.382910 0.923786
vn -0.000000 -0.006481 0.999979
vn 0.000000 -0.707285 0.706929
vn 0.000000 -0.707285 0.706929
vn 0.000000 -0.707071 0.707143
vn 0.000000 -0.707071 0.707143
vn 0.000000 -0.923835 0.382791
vn 0.000000 -0.923835 0.382791
vn -0.000000 0.000000 1.000000
vn -0.000000 0.000000 1.000000
vn -0.000000 0.923856 0.382740
vn -0.000004 0.923855 0.382742
vn 0.000000 0.382682 0.923880
vn 0.000000 0.382682 0.923880
vn 0.000000 0.382682 0.923880
vn 0.000000 0.382682 0.923880
vn 0.000000 0.382682 0.923880
vn -0.034390 0.825361 0.563558
vn -0.034390 0.825361 0.563558
vn -0.060903 0.850741 0.522045
vn -0.066975 0.893920 0.443195
s off
g part2
usemtl initialShadingGroup
f 1/1/1 2/2/2 4/4/3 3/3/4
f 3/3/5 4/4/6 6/6/7 5/5/8
f 5/5/9 6/6/10 8/8/11 7/7/12
f 7/7/13 8/8/14 2/10/15 1/9/16
f 2/2/17 8/11/18 6/12/19 4/4/20
f 7/13/21 1/1/22 3/3/23 5/14/24
s 1
f 11/15/25 21/16/26 23/17/27 12/18/28
s 2
f 14/19/29 49/20/30 43/21/31 9/22/32
s 3
f 38/23/33 34/24/34 16/25/35 17/26/36
s 2
f 16/27/37 42/28/38 46/29/39 17/30/40
s 1
f 21/16/26 20/31/41 24/32/42 23/17/27
f 20/31/41 19/33/43 25/34/44 24/32/42
f 19/33/43 18/35/45 22/36/46 25/34/44
s 3
f 26/37/47 29/38/48 31/39/49 30/40/50
f 29/38/48 28/41/51 32/42/52 31/39/49
f 28/41/51 27/43/53 33/44/54 32/42/52
f 37/45/55 36/46/56 40/47/57 39/48/58
f 36/46/56 35/49/59 41/50/60 40/47/57
f 35/49/59 34/24/34 38/23/33 41/50/60
s 2
f 42/28/38 45/51/61 47/52/62 46/29/39
f 45/51/61 44/53/63 48/54/64 47/52/62
f 44/53/63 43/21/31 49/20/30 48/54/64
s 3
f 10/55/65 37/45/55 39/48/58 13/56/66 33/44/54 27/43/53
f 15/57/67 26/37/47 30/40/50 53/58/68
s 1
f 50/59/69 51/60/70 52/61/71 22/36/46 18/35/45 15/57/72 53/62/73
s 3
f 32/63/52 33/64/74 52/61/75 51/60/76
f 30/40/50 31/39/49 50/65/77 53/58/68
f 31/39/49 32/42/52 51/66/76 50/65/77
s 7
f 56/67/78 66/68/79 68/69/80 57/70/81
s 8
f 59/71/82 94/72/83 88/73/84 54/74/85
s 9
f 83/75/86 79/76/87 61/77/88 62/78/89
s 8
f 61/79/90 87/80/91 91/81/92 62/82/93
s 7
f 66/68/79 65/83/94 69/84/95 68/69/80
f 65/83/94 64/85/96 70/86/97 69/84/95
f 64/85/96 63/87/98 67/88/99 70/86/97
s 9
f 71/89/100 74/90/101 76/91/102 75/92/103
f 74/90/101 73/93/104 77/94/105 76/91/102
f 73/93/104 72/95/106 78/96/107 77/94/105
f 82/97/108 81/98/109 85/99/110 84/100/111
f 81/98/109 80/101/112 86/102/113 85/99/110
f 80/101/112 79/76/87 83/75/86 86/102/113
s 8
f 87/80/91 90/103/114 92/104/115 91/81/92
f 90/103/114 89/105/116 93/106/117 92/104/115
f 89/105/116 88/73/84 94/72/83 93/106/117
s 9
f 55/107/118 82/97/108 84/100/111 58/108/119 78/96/107 72/95/106
f 60/109/120 71/89/100 75/92/103 98/110/121
s 7
f 95/111/122 96/112/123 97/113/124 67/88/99 63/87/98 60/109/125 98/114/126
s 9
f 77/115/105 78/116/127 97/113/128 96/112/129
f 75/92/103 76/91/102 95/117/130 98/110/121
f 76/91/102 77/94/105 96/118/129 95/117/130
s 13
f 101/119/131 111/120/132 113/121/133 102/122/134
s 14
f 104/123/135 139/124/136 133/125/137 99/126/138
s 15
f 128/127/139 124/128/140 106/129/141 107/130/142
s 14
f 106/131/143 132/132/144 136/133/145 107/134/146
s 13
f 111/120/132 110/135/147 114/136/148 113/121/133
f 110/135/147 109/137/149 115/138/150 114/136/148
f 109/137/149 108/139/151 112/140/152 115/138/150
s 15
f 116/141/153 119/142/154 121/143/155 120/144/156
f 119/142/154 118/145/157 122/146/158 121/143/155
f 118/145/157 117/147/159 123/148/160 122/146/158
f 127/149/161 126/150/162 130/151/163 129/152/164
f 126/150/162 125/153/165 131/154/166 130/151/163
f 125/153/165 124/128/140 128/127/139 131/154/166
s 14
f 132/132/144 135/155/167 137/156/168 136/133/145
f 135/155/167 134/157/169 138/158/170 137/156/168
f 134/157/169 133/125/137 139/124/136 138/158/170
s 15
f 100/159/171 127/149/161 129/152/164 103/160/172 123/148/160 117/147/159
f 105/161/173 116/141/153 120/144/156 143/162/174
s 13
f 140/163/175 141/164/176 142/165/177 112/140/152 108/139/151 105/161/178 143/166/179
s 15
f 122/167/158 123/168/180 142/165/181 141/164/182
f 120/144/156 121/143/155 140/169/183 143/162/174
f 121/143/155 122/146/158 141/170/182 140/169/183
s 19
f 146/171/184 156/172/185 158/173/186 147/174/187
s 20
f 149/175/188 184/176/189 178/177/190 144/178/191
s 21
f 173/179/192 169/180/193 151/181/194 152/182/195
s 20
f 151/183/196 177/184/197 181/185/198 152/186/199
s 19
f 156/172/185 155/187/200 159/188/201 158/173/186
f 155/187/200 154/189/202 160/190/203 159/188/201
f 154/189/202 153/191/204 157/192/205 160/190/203
s 21
f 161/193/206 164/194/207 166/195/208 165/196/209
f 164/194/207 163/197/210 167/198/211 166/195/208
f 163/197/210 162/199/212 168/200/213 167/198/211
f 172/201/214 171/202/215 175/203/216 174/204/217
f 171/202/215 170/205/218 176/206/219 175/203/216
f 170/205/218 169/180/193 173/179/192 176/206/219
s 20
f 177/184/197 180/207/220 182/208/221 181/185/198
f 180/207/220 179/209/222 183/210/223 182/208/221
f 179/209/222 178/177/190 184/176/189 183/210/223
s 21
f 145/211/224 172/201/214 174/204/217 148/212/225 168/200/213 162/199/212
f 150/213/226 161/193/206 165/196/209 188/214/227
s 19
f 185/215/228 186/216/229 187/217/230 157/192/205 153/191/204 150/213/231 188/218/232
s 21
f 167/219/211 168/220/233 187/217/234 186/216/235
f 165/196/209 166/195/208 185/221/236 188/214/227
f 166/195/208 167/198/211 186/222/235 185/221/236
s 25
f 191/223/237 201/224/238 203/225/239 192/226/240
s 26
f 194/227/241 229/228/242 223/229/243 189/230/244
s 27
f 218/231/245 214/232/246 196/233/247 197/234/248
s 26
f 196/235/249 222/236/250 226/237/251 197/238/252
s 25
f 201/224/238 200/239/253 204/240/254 203/225/239
f 200/239/253 199/241/255 205/242/256 204/240/254
f 199/241/255 198/243/257 202/244/258 205/242/256
s 27
f 206/245/259 209/246/260 211/247/261 210/248/262
f 209/246/260 208/249/263 212/250/264 211/247/261
f 208/249/263 207/251/265 213/252/266 212/250/264
f 217/253/267 216/254/268 220/255/269 219/256/270
f 216/254/268 215/257/271 221/258/272 220/255/269
f 215/257/271 214/232/246 218/231/245 221/258/272
s 26
f 222/236/250 225/259/273 227/260/274 226/237/251
f 225/259/273 224/261/275 228/262/276 227/260/274
f 224/261/275 223/229/243 229/228/242 228/262/276
s 27
f 190/263/277 217/253/267 219/256/270 193/264/278 213/252/266 207/251/265
f 195/265/279 206/245/259 210/248/262 233/266/280
s 25
f 230/267/281 231/268/282 232/269/283 202/244/258 198/243/257 195/265/284 233/270/285
s 27
f 212/271/264 213/272/286 232/269/287 231/268/288
f 210/248/262 211/247/261 230/273/289 233/266/280
f 211/247/261 212/250/264 231/274/288 230/273/289
s 31
f 236/275/290 246/276/291 248/277/292 237/278/293
s 32
f 239/279/294 274/280/295 268/281/296 234/282/297
s 33
f 263/283/298 259/284/299 241/285/300 242/286/301
s 32
f 241/287/302 267/288/303 271/289/304 242/290/305
s 31
f 246/276/291 245/291/306 249/292/307 248/277/292
f 245/291/306 244/293/308 250/294/309 249/292/307
f 244/293/308 243/295/310 247/296/311 250/294/309
s 33
f 251/297/312 254/298/313 256/299/314 255/300/315
f 254/298/313 253/301/316 257/302/317 256/299/314
f 253/301/316 252/303/318 258/304/319 257/302/317
f 262/305/320 261/306/321 265/307/322 264/308/323
f 261/306/321 260/309/324 266/310/325 265/307/322
f 260/309/324 259/284/299 263/283/298 266/310/325
s 32
f 267/288/303 270/311/326 272/312/327 271/289/304
f 270/311/326 269/313/328 273/314/329 272/312/327
f 269/313/328 268/281/296 274/280/295 273/314/329
s 33
f 235/315/330 262/305/320 264/308/323 238/316/331 258/304/319 252/303/318
f 240/317/332 251/297/312 255/300/315 278/318/333
s 31
f 275/319/334 276/320/335 277/321/336 247/296/311 243/295/310 240/317/337 278/322/338
s 33
f 257/323/317 258/324/339 277/321/340 276/320/341
f 255/300/315 256/299/314 275/325/342 278/318/333
f 256/299/314 257/302/317 276/326/341 275/325/342
s 37
f 281/327/343 291/328/344 293/329/345 282/330/346
s 38
f 284/331/347 319/332/348 313/333/349 279/334/350
s 39
f 308/335/351 304/336/352 286/337/353 287/338/354
s 38
f 286/339/355 312/340/356 316/341/357 287/342/358
s 37
f 291/328/344 290/343/359 294/344/360 293/329/345
f 290/343/359 289/345/361 295/346/362 294/344/360
f 289/345/361 288/347/363 292/348/364 295/346/362
s 39
f 296/349/365 299/350/366 301/351/367 300/352/368
f 299/350/366 298/353/369 302/354/370 301/351/367
f 298/353/369 297/355/371 303/356/372 302/354/370
f 307/357/373 306/358/374 310/359/375 309/360/376
f 306/358/374 305/361/377 311/362/378 310/359/375
f 305/361/377 304/336/352 308/335/351 311/362/378
s 38
f 312/340/356 315/363/379 317/364/380 316/341/357
f 315/363/379 314/365/381 318/366/382 317/364/380
f 314/365/381 313/333/349 319/332/348 318/366/382
s 39
f 280/367/383 307/357/373 309/360/376 283/368/384 303/356/372 297/355/371
f 285/369/385 296/349/365 300/352/368 323/370/386
s 37
f 320/371/387 321/372/388 322/373/389 292/348/364 288/347/363 285/369/390 323/374/391
s 39
f 302/375/370 303/376/392 322/373/393 321/372/394
f 300/352/368 301/351/367 320/377/395 323/370/386
f 301/351/367 302/354/370 321/378/394 320/377/395
s 43
f 326/379/396 336/380/397 338/381/398 327/382/399
s 44
f 329/383/400 364/384/401 358/385/402 324/386/403
s 45
f 353/387/404 349/388/405 331/389/406 332/390/407
s 44
f 331/391/408 357/392/409 361/393/410 332/394/411
s 43
f 336/380/397 335/395/412 339/396/413 338/381/398
f 335/395/412 334/397/414 340/398/415 339/396/413
f 334/397/414 333/399/416 337/400/417 340/398/415
s 45
f 341/401/418 344/402/419 346/403/420 345/404/421
f 344/402/419 343/405/422 347/406/423 346/403/420
f 343/405/422 342/407/424 348/408/425 347/406/423
f 352/409/426 351/410/427 355/411/428 354/412/429
f 351/410/427 350/413/430 356/414/431 355/411/428
f 350/413/430 349/388/405 353/387/404 356/414/431
s 44
f 357/392/409 360/415/432 362/416/433 361/393/410
f 360/415/432 359/417/434 363/418/435 362/416/433
f 359/417/434 358/385/402 364/384/401 363/418/435
s 45
f 325/419/436 352/409/426 354/412/429 328/420/437 348/408/425 342/407/424
f 330/421/438 341/401/418 345/404/421 368/422/439
s 43
f 365/423/440 366/424/441 367/425/442 337/400/417 333/399/416 330/421/443 368/426/444
s 45
f 347/427/423 348/428/445 367/425/446 366/424/447
f 345/404/421 346/403/420 365/429/448 368/422/439
f 346/403/420 347/406/423 366/430/447 365/429/448
s 49
f 371/431/449 381/432/450 383/433/451 372/434/452
s 50
f 374/435/453 409/436/454 403/437/455 369/438/456
s 51
f 398/439/457 394/440/458 376/441/459 377/442/460
s 50
f 376/443/461 402/444/462 406/445/463 377/446/464
s 49
f 381/432/450 380/447/465 384/448/466 383/433/451
f 380/447/465 379/449/467 385/450/468 384/448/466
f 379/449/467 378/451/469 382/452/470 385/450/468
s 51
f 386/453/471 389/454/472 391/455/473 390/456/474
f 389/454/472 388/457/475 392/458/476 391/455/473
f 388/457/475 387/459/477 393/460/478 392/458/476
f 397/461/479 396/462/480 400/463/481 399/464/482
f 396/462/480 395/465/483 401/466/484 400/463/481
f 395/465/483 394/440/458 398/439/457 401/466/484
s 50
f 402/444/462 405/467/485 407/468/486 406/445/463
f 405/467/485 404/469/487 408/470/488 407/468/486
f 404/469/487 403/437/455 409/436/454 408/470/488
s 51
f 370/471/489 397/461/479 399/464/482 373/472/490 393/460/478 387/459/477
f 375/473/491 386/453/471 390/456/474 413/474/492
s 49
f 410/475/493 411/476/494 412/477/495 382/452/470 378/451/469 375/473/496 413/478/497
s 51
f 392/479/476 393/480/498 412/477/499 411/476/500
f 390/456/474 391/455/473 410/481/501 413/474/492
f 391/455/473 392/458/476 411/482/500 410/481/501
s 55
f 416/483/502 426/484/503 428/485/504 417/486/505
s 56
f 419/487/506 454/488/507 448/489/508 414/490/509
s 57
f 443/491/510 439/492/511 421/493/512 422/494/513
s 56
f 421/495/514 447/496/515 451/497/516 422/498/517
s 55
f 426/484/503 425/499/518 429/500/519 428/485/504
f 425/499/518 424/501/520 430/502/521 429/500/519
f 424/501/520 423/503/522 427/504/523 430/502/521
s 57
f 431/505/524 434/506/525 436/507/526 435/508/527
f 434/506/525 433/509/528 437/510/529 436/507/526
f 433/509/528 432/511/530 438/512/531 437/510/529
f 442/513/532 441/514/533 445/515/534 444/516/535
f 441/514/533 440/517/536 446/518/537 445/515/534
f 440/517/536 439/492/511 443/491/510 446/518/537
s 56
f 447/496/515 450/519/538 452/520/539 451/497/516
f 450/519/538 449/521/540 453/522/541 452/520/539
f 449/521/540 448/489/508 454/488/507 453/522/541
s 57
f 415/523/542 442/513/532 444/516/535 418/524/543 438/512/531 432/511/530
f 420/525/544 431/505/524 435/508/527 458/526/545
s 55
f 455/527/546 456/528/547 457/529/548 427/504/523 423/503/522 420/525/549 458/530/550
s 57
f 437/531/529 438/532/551 457/529/552 456/528/553
f 435/508/527 436/507/526 455/533/554 458/526/545
f 436/507/526 437/510/529 456/534/553 455/533/554
s 61
f 461/535/555 471/536/556 473/537/557 462/538/558
s 62
f 464/539/559 499/540/560 493/541/561 459/542/562
s 63
f 488/543/563 484/544/564 466/545/565 467/546/566
s 62
f 466/547/567 492/548/568 496/549/569 467/550/570
s 61
f 471/536/556 470/551/571 474/552/572 473/537/557
f 470/551/571 469/553/573 475/554/574 474/552/572
f 469/553/573 468/555/575 472/556/576 475/554/574
s 63
f 476/557/577 479/558/578 481/559/579 480/560/580
f 479/558/578 478/561/581 482/562/582 481/559/579
f 478/561/581 477/563/583 483/564/584 482/562/582
f 487/565/585 486/566/586 490/567/587 489/568/588
f 486/566/586 485/569/589 491/570/590 490/567/587
f 485/569/589 484/544/564 488/543/563 491/570/590
s 62
f 492/548/568 495/571/591 497/572/592 496/549/569
f 495/571/591 494/573/593 498/574/594 497/572/592
f 494/573/593 493/541/561 499/540/560 498/574/594
s 63
f 460/575/595 487/565/585 489/568/588 463/576/596 483/564/584 477/563/583
f 465/577/597 476/557/577 480/560/580 503/578/598
s 61
f 500/579/599 501/580/600 502/581/601 472/556/576 468/555/575 465/577/602 503/582/603
s 63
f 482/583/582 483/584/604 502/581/605 501/580/606
f 480/560/580 481/559/579 500/585/607 503/578/598
f 481/559/579 482/562/582 501/586/606 500/585/607
