# This file uses centimeters as units for non-parametric coordinates.

mtllib floor.mtl
g default
v -7.596103 0.118246 -8.000000
v -7.596103 0.118246 10.000000
v 13.172035 0.118246 10.000000
v 13.172035 0.118246 -8.000000
vt 0.903431 0.998008
vt 0.001803 0.998008
vt 0.001803 0.001992
vt 0.903431 0.001992
vn 0.000000 1.000000 0.000000
vn 0.000000 1.000000 0.000000
vn 0.000000 1.000000 0.000000
vn 0.000000 1.000000 0.000000
s off
g floor
usemtl initialShadingGroup
f 1/1/1 2/2/2 3/3/3 4/4/4
g default
v -7.596103 0.118246 -8.000000
v -7.596103 0.118246 10.000000
v 13.172035 0.118246 10.000000
v 13.172035 0.118246 -8.000000
vt 0.903431 0.998008
vt 0.001803 0.998008
vt 0.001803 0.001992
vt 0.903431 0.001992
vn 0.000000 1.000000 0.000000
vn 0.000000 1.000000 0.000000
vn 0.000000 1.000000 0.000000
vn 0.000000 1.000000 0.000000
s off
g floor
f 5/5/5 6/6/6 7/7/7 8/8/8
