# This file uses centimeters as units for non-parametric coordinates.

mtllib frame.mtl
g default
v -2.789526 0.551838 -5.570545
v 2.789526 0.551838 -5.570545
v 2.789526 6.130891 -5.570545
v -2.789526 6.130891 -5.570545
v -2.789526 0.551838 -5.820310
v 2.789526 0.551838 -5.820310
v 2.789526 6.130891 -5.820310
v -2.789526 6.130891 -5.820310
v -3.193042 0.159446 -5.573526
v -3.201185 0.159446 -5.581669
v -3.204165 0.159446 -5.592792
v -3.201185 0.148323 -5.592792
v -3.193042 0.140180 -5.592792
v -3.181918 0.137199 -5.592792
v -3.181918 0.140180 -5.581669
v -3.181918 0.148323 -5.573526
v -3.181918 0.159446 -5.570545
v 3.181918 0.148323 -5.573526
v 3.181918 0.140180 -5.581669
v 3.181918 0.137199 -5.592792
v 3.193042 0.140180 -5.592792
v 3.201185 0.148323 -5.592792
v 3.204165 0.159446 -5.592792
v 3.201185 0.159446 -5.581669
v 3.193042 0.159446 -5.573526
v 3.181918 0.159446 -5.570545
v -3.181918 6.534405 -5.573526
v -3.181918 6.542548 -5.581669
v -3.181918 6.545529 -5.592792
v -3.193042 6.542548 -5.592792
v -3.201185 6.534405 -5.592792
v -3.204165 6.523282 -5.592792
v -3.201185 6.523282 -5.581669
v -3.193042 6.523282 -5.573526
v -3.181918 6.523282 -5.570545
v 3.193042 6.523282 -5.573526
v 3.201185 6.523282 -5.581669
v 3.204165 6.523282 -5.592792
v 3.201185 6.534405 -5.592792
v 3.193042 6.542548 -5.592792
v 3.181918 6.545529 -5.592792
v 3.181918 6.542548 -5.581669
v 3.181918 6.534405 -5.573526
v 3.181918 6.523282 -5.570545
v -3.193042 6.523282 -6.457536
v -3.201185 6.523282 -6.449393
v -3.204165 6.523282 -6.438268
v -3.201185 6.534405 -6.438268
v -3.193042 6.542548 -6.438268
v -3.181918 6.545529 -6.438268
v -3.181918 6.542548 -6.449393
v -3.181918 6.534405 -6.457536
v -3.181918 6.523282 -6.460516
v 3.201185 6.523282 -6.449393
v 3.193042 6.523282 -6.457536
v 3.181918 6.523282 -6.460516
v 3.181918 6.534405 -6.457536
v 3.181918 6.542548 -6.449393
v 3.181918 6.545529 -6.438268
v 3.193042 6.542548 -6.438268
v 3.201185 6.534405 -6.438268
v 3.204165 6.523282 -6.438268
v -3.193042 0.140180 -6.438268
v -3.201185 0.148323 -6.438268
v -3.204165 0.159446 -6.438268
v -3.201185 0.159446 -6.449393
v -3.193042 0.159446 -6.457536
v -3.181918 0.159446 -6.460516
v -3.181918 0.148323 -6.457536
v -3.181918 0.140180 -6.449393
v -3.181918 0.137199 -6.438268
v 3.201185 0.148323 -6.438268
v 3.193042 0.140180 -6.438268
v 3.181918 0.137199 -6.438268
v 3.181918 0.140180 -6.449393
v 3.181918 0.148323 -6.457536
v 3.181918 0.159446 -6.460516
v 3.193042 0.159446 -6.457536
v 3.201185 0.159446 -6.449393
v 3.204165 0.159446 -6.438268
v -3.191531 0.149833 -5.575200
v -3.199512 0.149833 -5.583180
v -3.191531 0.141853 -5.583180
v 3.191531 0.149833 -5.575200
v 3.191531 0.141853 -5.583180
v 3.199512 0.149833 -5.583180
v -3.191531 6.532894 -5.575200
v -3.191531 6.540875 -5.583180
v -3.199512 6.532894 -5.583180
v 3.191531 6.532894 -5.575200
v 3.199512 6.532894 -5.583180
v 3.191531 6.540875 -5.583180
v -3.191531 6.532894 -6.455862
v -3.199512 6.532894 -6.447882
v -3.191531 6.540875 -6.447882
v 3.199512 6.532894 -6.447882
v 3.191531 6.532894 -6.455862
v 3.191531 6.540875 -6.447882
v -3.191531 0.141853 -6.447882
v -3.199512 0.149833 -6.447882
v -3.191531 0.149833 -6.455862
v 3.199512 0.149833 -6.447882
v 3.191531 0.141853 -6.447882
v 3.191531 0.149833 -6.455862
vt 0.375000 0.000000
vt 0.625000 0.000000
vt 0.625000 0.000000
vt 0.375000 0.000000
vt 0.625000 0.250000
vt 0.625000 0.250000
vt 0.375000 0.250000
vt 0.375000 0.250000
vt 0.368751 0.000868
vt 0.371800 0.000441
vt 0.372098 0.249559
vt 0.368751 0.249132
vt 0.374067 0.000133
vt 0.374181 0.249867
vt 0.375000 0.000000
vt 0.375000 0.250000
vt 0.375868 0.993751
vt 0.416017 0.871766
vt 0.375890 0.753125
vt 0.375868 0.756249
vt 0.456171 0.750000
vt 0.375913 0.750000
vt 0.368512 0.000000
vt 0.131249 0.000868
vt 0.127739 0.000000
vt 0.374158 0.000000
vt 0.625842 -0.000000
vt 0.625000 0.000000
vt 0.458053 0.750000
vt 0.422644 0.831787
vt 0.577356 0.831786
vt 0.541947 0.750000
vt 0.624132 0.993751
vt 0.631249 0.000868
vt 0.631488 -0.000000
vt 0.872261 -0.000000
vt 0.868751 0.000868
vt 0.543829 0.750000
vt 0.583983 0.871766
vt 0.624110 0.753125
vt 0.624087 0.750000
vt 0.624132 0.756249
vt 0.625933 0.000133
vt 0.625819 0.249867
vt 0.625000 0.250000
vt 0.628200 0.000441
vt 0.627902 0.249559
vt 0.631249 0.249132
vt 0.375868 0.256249
vt 0.375460 0.253029
vt 0.624541 0.253029
vt 0.624132 0.256249
vt 0.375138 0.250852
vt 0.624862 0.250852
vt 0.372219 0.250000
vt 0.127781 0.250000
vt 0.131249 0.249132
vt 0.375000 0.252781
vt 0.375434 0.254515
vt 0.375434 0.495485
vt 0.375000 0.497219
vt 0.375868 0.493751
vt 0.624566 0.254515
vt 0.624566 0.495485
vt 0.624132 0.493751
vt 0.625000 0.252781
vt 0.625000 0.497219
vt 0.627781 0.250000
vt 0.868751 0.249132
vt 0.872219 0.250000
vt 0.125000 0.249428
vt 0.125000 0.000572
vt 0.375000 0.500572
vt 0.375619 0.500775
vt 0.375619 0.749225
vt 0.375000 0.749428
vt 0.375868 0.500868
vt 0.375868 0.749132
vt 0.375874 0.499865
vt 0.624126 0.499865
vt 0.624132 0.500868
vt 0.375873 0.497367
vt 0.624127 0.497367
vt 0.624381 0.500775
vt 0.624381 0.749225
vt 0.624132 0.749132
vt 0.625000 0.500572
vt 0.625000 0.749428
vt 0.875000 0.249428
vt 0.875000 0.000572
vt 0.375873 0.752632
vt 0.624127 0.752632
vt 0.375874 0.750135
vt 0.624126 0.750135
vt 0.373546 0.000000
vt 0.371251 0.000000
vt 0.457084 0.750000
vt 0.406729 0.507431
vt 0.457849 0.750000
vt 0.626454 -0.000000
vt 0.542152 0.750000
vt 0.593271 0.507431
vt 0.542916 0.750000
vt 0.628749 -0.000000
vt 0.375000 0.250000
vt 0.375273 0.251847
vt 0.375000 0.250000
vt 0.375000 0.250000
vt 0.625000 0.250000
vt 0.625000 0.250000
vt 0.625000 0.250000
vt 0.624727 0.251847
vt 0.375689 0.499989
vt 0.375000 0.500000
vt 0.125000 0.250000
vt 0.375460 0.498348
vt 0.875000 0.250000
vt 0.625000 0.500000
vt 0.624311 0.499989
vt 0.624540 0.498348
vt 0.375466 0.751633
vt 0.375000 0.750000
vt 0.125000 0.000000
vt 0.375688 0.750012
vt 0.875000 0.000000
vt 0.625000 0.750000
vt 0.624534 0.751633
vt 0.624312 0.750012
vn 0.000000 1.000000 0.000000
vn 0.000000 1.000000 0.000000
vn 0.000000 1.000000 0.000000
vn 0.000000 1.000000 0.000000
vn -1.000000 0.000000 0.000000
vn -1.000000 0.000000 0.000000
vn -1.000000 0.000000 0.000000
vn -1.000000 0.000000 0.000000
vn 0.000000 -1.000000 0.000000
vn 0.000000 -1.000000 0.000000
vn 0.000000 -1.000000 0.000000
vn 0.000000 -1.000000 0.000000
vn 1.000000 0.000000 0.000000
vn 1.000000 0.000000 0.000000
vn 1.000000 0.000000 0.000000
vn 1.000000 0.000000 0.000000
vn -0.999994 -0.000466 0.003478
vn -0.865917 -0.000360 0.500188
vn -0.865917 0.000360 0.500188
vn -0.999994 0.000466 0.003478
vn -0.499806 -0.000346 0.866138
vn -0.499806 0.000346 0.866138
vn -0.007639 -0.007639 0.999942
vn -0.007639 0.007639 0.999942
vn -0.000466 -0.999994 0.003478
vn -0.258552 -0.965994 0.002604
vn -0.258552 -0.965994 -0.002604
vn -0.000466 -0.999994 -0.003478
vn -0.707108 -0.707101 0.002604
vn -0.707108 -0.707101 0.002604
vn -0.707108 -0.707101 -0.002604
vn -0.707108 -0.707101 -0.002604
vn -0.965993 -0.258555 0.002604
vn -0.999994 -0.000466 -0.003478
vn -0.965993 -0.258555 -0.002604
vn -0.000346 -0.499808 0.866136
vn 0.000346 -0.499808 0.866136
vn 0.007639 -0.007639 0.999942
vn -0.000360 -0.865915 0.500191
vn 0.000360 -0.865915 0.500191
vn 0.000466 -0.999994 0.003478
vn 0.999994 -0.000466 0.003478
vn 0.965993 -0.258555 0.002604
vn 0.965993 -0.258555 -0.002604
vn 0.999994 -0.000466 -0.003478
vn 0.707108 -0.707101 0.002604
vn 0.707108 -0.707101 0.002604
vn 0.707108 -0.707101 -0.002604
vn 0.707108 -0.707101 -0.002604
vn 0.258552 -0.965994 0.002604
vn 0.000466 -0.999994 -0.003478
vn 0.258552 -0.965994 -0.002604
vn 0.499806 -0.000346 0.866138
vn 0.499806 0.000346 0.866138
vn 0.007639 0.007639 0.999942
vn 0.865917 -0.000360 0.500188
vn 0.865917 0.000360 0.500188
vn 0.999994 0.000466 0.003478
vn -0.000466 0.999994 0.003479
vn -0.000360 0.865911 0.500197
vn 0.000360 0.865911 0.500197
vn 0.000466 0.999994 0.003479
vn -0.000159 0.707091 0.707123
vn 0.000159 0.707091 0.707123
vn -0.000510 0.258822 0.965925
vn 0.000510 0.258822 0.965925
vn -0.965993 0.258555 0.002604
vn -0.965993 0.258555 -0.002604
vn -0.999994 0.000466 -0.003478
vn -0.707100 0.707109 0.002604
vn -0.499892 0.866083 0.002696
vn -0.499892 0.866084 -0.002696
vn -0.707100 0.707109 -0.002604
vn -0.000466 0.999994 -0.003479
vn 0.499892 0.866083 0.002696
vn 0.499892 0.866083 -0.002696
vn 0.000466 0.999994 -0.003479
vn 0.707100 0.707109 0.002604
vn 0.707099 0.707109 -0.002604
vn 0.965993 0.258555 0.002604
vn 0.999994 0.000466 -0.003478
vn 0.965993 0.258555 -0.002604
vn -0.965939 0.000166 -0.258768
vn -0.965939 -0.000166 -0.258768
vn -0.707082 0.000529 -0.707131
vn -0.499791 0.000346 -0.866146
vn -0.499791 -0.000346 -0.866146
vn -0.707082 -0.000529 -0.707131
vn -0.000467 0.000467 -1.000000
vn -0.000467 -0.000467 -1.000000
vn -0.000346 0.499797 -0.866143
vn 0.000346 0.499797 -0.866143
vn 0.000467 0.000467 -1.000000
vn -0.000360 0.865931 -0.500164
vn 0.000360 0.865931 -0.500164
vn 0.499791 0.000346 -0.866146
vn 0.499791 -0.000346 -0.866146
vn 0.000467 -0.000467 -1.000000
vn 0.707082 0.000529 -0.707131
vn 0.707082 -0.000529 -0.707131
vn 0.965939 0.000166 -0.258768
vn 0.965939 -0.000166 -0.258768
vn -0.000166 -0.965938 -0.258774
vn 0.000166 -0.965938 -0.258774
vn -0.000529 -0.707083 -0.707131
vn -0.000346 -0.499793 -0.866145
vn 0.000346 -0.499793 -0.866145
vn 0.000529 -0.707083 -0.707131
vn 0.000000 0.000000 1.000000
vn 0.000000 0.000000 1.000000
vn 0.000000 0.000000 1.000000
vn 0.000000 0.000000 1.000000
vn -0.229050 -0.229053 0.946082
vn -0.486748 -0.486739 0.725370
vn -0.690767 -0.570764 0.443924
vn -0.946102 -0.228997 0.229022
vn -0.570755 -0.690781 0.443914
vn -0.229018 -0.946097 0.229021
vn 0.229048 -0.229051 0.946083
vn 0.486753 -0.486727 0.725374
vn 0.570753 -0.690778 0.443923
vn 0.229017 -0.946096 0.229028
vn 0.690766 -0.570757 0.443936
vn 0.946105 -0.228985 0.229023
vn -0.229053 0.229056 0.946080
vn -0.486748 0.486729 0.725377
vn -0.570756 0.690778 0.443917
vn -0.229025 0.946094 0.229027
vn -0.690771 0.570762 0.443922
vn -0.946105 0.228988 0.229020
vn 0.229055 0.229057 0.946080
vn 0.486743 0.486740 0.725373
vn 0.690768 0.570767 0.443920
vn 0.946102 0.228999 0.229019
vn 0.570756 0.690779 0.443918
vn 0.229026 0.946094 0.229025
vn -0.229034 0.229036 -0.946090
vn -0.486731 0.486736 -0.725383
vn -0.690777 0.570778 -0.443891
vn -0.946113 0.228995 -0.228980
vn -0.570760 0.690791 -0.443892
vn -0.229023 0.946104 -0.228988
vn 0.946113 0.228994 -0.228979
vn 0.690778 0.570777 -0.443891
vn 0.486732 0.486735 -0.725383
vn 0.229032 0.229035 -0.946091
vn 0.570762 0.690791 -0.443891
vn 0.229023 0.946103 -0.228991
vn -0.229015 -0.946105 -0.228992
vn -0.570756 -0.690791 -0.443898
vn -0.690772 -0.570773 -0.443906
vn -0.946113 -0.228992 -0.228982
vn -0.486735 -0.486734 -0.725382
vn -0.229030 -0.229030 -0.946092
vn 0.946113 -0.228993 -0.228983
vn 0.690775 -0.570777 -0.443896
vn 0.570758 -0.690795 -0.443889
vn 0.229015 -0.946107 -0.228983
vn 0.486733 -0.486736 -0.725382
vn 0.229031 -0.229031 -0.946092
s off
g frame
usemtl initialShadingGroup
f 1/1/1 2/2/2 6/3/3 5/4/4
f 2/2/5 3/5/6 7/6/7 6/3/8
f 3/5/9 4/7/10 8/8/11 7/6/12
f 4/7/13 1/1/14 5/4/15 8/8/16
s 1
f 11/9/17 10/10/18 33/11/19 32/12/20
f 10/10/18 9/13/21 34/14/22 33/11/19
f 9/13/21 17/15/23 35/16/24 34/14/22
f 14/17/25 13/18/26 63/19/27 71/20/28
f 13/18/29 12/21/30 64/22/31 63/19/32
f 12/23/33 11/9/17 65/24/34 64/25/35
f 17/15/23 16/26/36 18/27/37 26/28/38
f 16/29/36 15/30/39 19/31/40 18/32/37
f 15/30/39 14/17/25 20/33/41 19/31/40
f 23/34/42 22/35/43 72/36/44 80/37/45
f 22/38/46 21/39/47 73/40/48 72/41/49
f 21/39/50 20/33/41 74/42/51 73/40/52
f 26/28/38 25/43/53 36/44/54 44/45/55
f 25/43/53 24/46/56 37/47/57 36/44/54
f 24/46/56 23/34/42 38/48/58 37/47/57
f 29/49/59 28/50/60 42/51/61 41/52/62
f 28/50/60 27/53/63 43/54/64 42/51/61
f 27/53/65 35/16/24 44/45/55 43/54/66
f 32/12/20 31/55/67 48/56/68 47/57/69
f 31/58/70 30/59/71 49/60/72 48/61/73
f 30/59/71 29/49/59 50/62/74 49/60/72
f 41/52/62 40/63/75 60/64/76 59/65/77
f 40/63/75 39/66/78 61/67/79 60/64/76
f 39/68/80 38/48/58 62/69/81 61/70/82
f 47/57/69 46/71/83 66/72/84 65/24/34
f 46/73/85 45/74/86 67/75/87 66/76/88
f 45/74/86 53/77/89 68/78/90 67/75/87
f 53/77/89 52/79/91 57/80/92 56/81/93
f 52/79/91 51/82/94 58/83/95 57/80/92
f 51/82/94 50/62/74 59/65/77 58/83/95
f 56/81/93 55/84/96 78/85/97 77/86/98
f 55/84/96 54/87/99 79/88/100 78/85/97
f 54/89/101 62/69/81 80/37/45 79/90/102
f 71/20/28 70/91/103 75/92/104 74/42/51
f 70/91/105 69/93/106 76/94/107 75/92/108
f 69/93/106 68/78/90 77/86/98 76/94/107
f 29/49/59 41/52/62 59/65/77 50/62/74
f 53/77/89 56/81/93 77/86/98 68/78/90
f 71/20/28 74/42/51 20/33/41 14/17/25
f 23/34/42 80/37/45 62/69/81 38/48/58
f 65/24/34 11/9/17 32/12/20 47/57/69
f 17/15/23 26/28/38 2/2/109 1/1/110
f 26/28/38 44/45/55 3/5/111 2/2/109
f 44/45/55 35/16/24 4/7/112 3/5/111
f 35/16/24 17/15/23 1/1/110 4/7/112
f 16/26/36 17/15/23 9/13/21 81/95/113
f 81/95/114 9/13/21 10/10/18 82/96/115
f 10/10/18 11/9/17 12/23/33 82/96/116
f 82/97/115 12/21/30 13/18/29 83/98/117
f 13/18/26 14/17/25 15/30/39 83/98/118
f 83/98/117 15/30/39 16/29/36 81/99/114
f 81/99/114 82/97/115 83/98/117
f 25/43/53 26/28/38 18/27/37 84/100/119
f 84/101/120 18/32/37 19/31/40 85/102/121
f 19/31/40 20/33/41 21/39/50 85/102/122
f 85/102/121 21/39/47 22/38/46 86/103/123
f 22/35/43 23/34/42 24/46/56 86/104/124
f 86/104/123 24/46/56 25/43/53 84/100/120
f 84/101/120 85/102/121 86/103/123
f 34/14/22 35/16/24 27/53/65 87/105/125
f 87/105/126 27/53/63 28/50/60 88/106/127
f 28/50/60 29/49/59 30/59/71 88/106/128
f 88/106/127 30/59/71 31/58/70 89/107/129
f 31/55/67 32/12/20 33/11/19 89/108/130
f 89/108/129 33/11/19 34/14/22 87/105/126
f 87/105/126 88/106/127 89/107/129
f 43/54/66 44/45/55 36/44/54 90/109/131
f 90/109/132 36/44/54 37/47/57 91/110/133
f 37/47/57 38/48/58 39/68/80 91/110/134
f 91/111/133 39/66/78 40/63/75 92/112/135
f 40/63/75 41/52/62 42/51/61 92/112/136
f 92/112/135 42/51/61 43/54/64 90/109/132
f 90/109/132 91/111/133 92/112/135
f 52/79/91 53/77/89 45/74/86 93/113/137
f 93/113/138 45/74/86 46/73/85 94/114/139
f 46/71/83 47/57/69 48/56/68 94/115/140
f 94/114/139 48/61/73 49/60/72 95/116/141
f 49/60/72 50/62/74 51/82/94 95/116/142
f 95/116/141 51/82/94 52/79/91 93/113/138
f 93/113/138 94/114/139 95/116/141
f 61/70/82 62/69/81 54/89/101 96/117/143
f 96/118/144 54/87/99 55/84/96 97/119/145
f 55/84/96 56/81/93 57/80/92 97/119/146
f 97/119/145 57/80/92 58/83/95 98/120/147
f 58/83/95 59/65/77 60/64/76 98/120/148
f 98/120/147 60/64/76 61/67/79 96/118/144
f 96/118/144 97/119/145 98/120/147
f 70/91/103 71/20/28 63/19/27 99/121/149
f 99/121/150 63/19/32 64/22/31 100/122/151
f 64/25/35 65/24/34 66/72/84 100/123/152
f 100/122/151 66/76/88 67/75/87 101/124/153
f 67/75/87 68/78/90 69/93/106 101/124/154
f 101/124/153 69/93/106 70/91/105 99/121/150
f 99/121/150 100/122/151 101/124/153
f 79/90/102 80/37/45 72/36/44 102/125/155
f 102/126/156 72/41/49 73/40/48 103/127/157
f 73/40/52 74/42/51 75/92/104 103/127/158
f 103/127/157 75/92/108 76/94/107 104/128/159
f 76/94/107 77/86/98 78/85/97 104/128/160
f 104/128/159 78/85/97 79/88/100 102/126/156
f 102/126/156 103/127/157 104/128/159
