# This file uses centimeters as units for non-parametric coordinates.

mtllib videoimage.mtl
g default
v -2.789526 0.551838 -5.820310
v 2.789526 0.551838 -5.820310
v 2.789526 6.130891 -5.820310
v -2.789526 6.130891 -5.820310
vt 0.001992 0.001992
vt 0.998008 0.001992
vt 0.998008 0.998008
vt 0.001992 0.998008
vn 0.000000 0.000000 1.000000
vn 0.000000 0.000000 1.000000
vn 0.000000 0.000000 1.000000
vn 0.000000 0.000000 1.000000
s off
g videoimage
usemtl initialShadingGroup
f 1/1/1 2/2/2 3/3/3 4/4/4
